<?xml version="1.0" standalone="no"?>
<!DOCTYPE svg PUBLIC "-//W3C//DTD SVG 20010904//EN"
 "http://www.w3.org/TR/2001/REC-SVG-20010904/DTD/svg10.dtd">
<svg version="1.0" xmlns="http://www.w3.org/2000/svg"
 width="350.000000pt" height="350.000000pt" viewBox="0 0 350.000000 350.000000"
 preserveAspectRatio="xMidYMid meet">

<g transform="translate(0.000000,350.000000) scale(0.100000,-0.100000)"
fill="#000000" stroke="none">
<path d="M1485 3180 c-396 -71 -877 -157 -1070 -190 -192 -34 -357 -63 -366
-66 -16 -4 -17 -63 -18 -688 l-2 -684 183 -107 c100 -60 187 -108 193 -108 5
0 381 98 835 218 859 227 898 239 900 290 1 20 1 20 9 0 8 -19 8 -19 22 3 8
12 19 22 25 22 6 0 58 35 115 78 107 81 140 122 118 148 -8 10 -8 14 0 14 6 0
11 -5 11 -12 0 -6 7 -3 16 8 15 18 15 18 5 -3 -15 -30 -1 -36 29 -11 17 13 21
21 12 25 -15 6 -6 23 13 23 9 0 12 -6 9 -15 -5 -13 1 -12 48 1 29 9 56 18 60
21 4 2 8 225 7 496 l0 492 -200 88 c-110 48 -208 87 -217 86 -9 0 -341 -59
-737 -129z m592 14 c-3 -3 -12 -4 -19 -1 -8 3 -5 6 6 6 11 1 17 -2 13 -5z
m-76 -31 c13 -16 12 -17 -3 -4 -17 13 -22 21 -14 21 2 0 10 -8 17 -17z m-194
-59 c-3 -3 -12 -4 -19 -1 -8 3 -5 6 6 6 11 1 17 -2 13 -5z m-1120 -156 c-3 -8
-6 -5 -6 6 -1 11 2 17 5 13 3 -3 4 -12 1 -19z m153 -18 c0 -5 8 -10 17 -10 9
0 14 -3 10 -6 -8 -8 -47 5 -47 17 0 5 5 9 10 9 6 0 10 -4 10 -10z m-82 -35
c-3 -3 -18 -3 -32 1 -25 6 -25 7 -9 20 15 11 20 10 32 -1 8 -8 12 -17 9 -20z
m52 20 c16 -19 0 -19 -26 0 -16 12 -16 14 -3 15 9 0 22 -7 29 -15z m-453 -37
c-3 -7 -5 -2 -5 12 0 14 2 19 5 13 2 -7 2 -19 0 -25z m327 17 c17 -13 16 -14
-17 -20 -25 -5 -42 -2 -57 8 -20 14 -21 16 -3 20 34 9 58 6 77 -8z m224 -13
c2 -7 -2 -10 -11 -6 -8 3 -38 -2 -67 -10 -46 -14 -54 -14 -67 -1 -12 13 -10
14 17 11 17 -2 33 1 36 6 3 5 13 6 22 4 10 -3 24 -1 32 4 18 11 32 8 38 -8z
m-315 -6 c16 -12 15 -14 -15 -19 -39 -5 -56 1 -37 15 10 7 8 8 -8 5 -13 -3
-23 -1 -23 4 0 14 63 10 83 -5z m-99 -7 c34 -16 23 -29 -22 -28 -36 1 -36 1
-7 8 20 4 26 9 18 14 -7 4 -21 3 -32 -3 -24 -12 -31 -13 -31 -1 0 5 10 12 23
14 12 2 23 5 24 6 1 0 13 -4 27 -10z m217 -32 c-5 -5 -22 -6 -38 -2 l-28 7 25
13 c28 15 60 1 41 -18z m34 23 c3 -5 2 -10 -4 -10 -5 0 -13 5 -16 10 -3 6 -2
10 4 10 5 0 13 -4 16 -10z m-331 -15 c19 -15 19 -15 -5 -13 -14 1 -26 8 -26
15 0 17 7 16 31 -2z m-54 -10 c16 -19 0 -19 -26 0 -16 12 -16 14 -3 15 9 0 22
-7 29 -15z m-232 -45 c18 -11 31 -24 29 -28 -2 -4 -7 -15 -11 -26 -5 -16 -9
-16 -24 -5 -15 13 -16 12 -3 -3 7 -10 17 -16 21 -13 3 2 6 -9 5 -26 -1 -23 2
-29 14 -24 13 4 13 3 -1 -8 -13 -11 -15 -16 -6 -25 19 -19 -5 -13 -32 8 -36
28 -40 25 -40 -27 0 -44 3 -50 35 -70 19 -13 37 -23 39 -23 3 0 7 20 9 45 l4
45 -1 -47 c-1 -25 -6 -48 -12 -50 -6 -2 -26 7 -45 20 -31 21 -34 27 -37 81 -3
63 -4 62 53 41 11 -4 4 3 -15 16 -32 23 -35 29 -38 82 -3 65 3 69 56 37z
m2287 -10 c-9 -16 -18 -30 -21 -30 -2 0 2 14 11 30 9 17 18 30 21 30 2 0 -2
-13 -11 -30z m-1370 -62 c-19 -11 -19 -11 0 -19 17 -7 18 -8 3 -8 -10 -1 -18
-6 -18 -12 0 -6 7 -9 15 -5 8 3 15 1 15 -4 0 -6 -4 -10 -9 -10 -5 0 -16 -3
-25 -6 -13 -5 -16 1 -16 28 0 40 6 48 34 48 21 -1 21 -1 1 -12z m-53 -10 c-7
-7 -12 -25 -12 -41 0 -36 -16 -27 -22 13 -4 29 3 38 32 39 11 1 11 -2 2 -11z
m-73 -42 c-7 -20 -16 -36 -19 -36 -8 0 -31 63 -24 69 3 3 9 -1 15 -9 8 -13 11
-12 20 3 17 29 22 12 8 -27z m616 25 c-16 -10 -81 -48 -144 -85 -63 -38 -123
-76 -134 -86 -18 -17 -57 -29 -208 -61 -48 -10 -63 -21 -149 -105 -52 -51
-104 -100 -115 -109 -19 -14 -18 -14 9 -5 16 6 36 8 43 6 8 -3 12 -2 9 3 -7
10 80 43 173 66 76 19 90 14 24 -8 -27 -9 -42 -16 -35 -16 7 -1 11 -5 8 -10
-16 -25 62 11 149 69 113 76 283 183 317 201 50 25 -4 -12 -137 -96 -77 -48
-169 -108 -205 -133 -65 -46 -214 -106 -258 -103 -13 0 -20 -3 -17 -9 6 -9
-112 -50 -146 -50 -10 0 -22 -8 -28 -17 -5 -10 -13 -14 -18 -9 -9 9 287 300
327 321 14 7 59 20 100 29 41 10 89 21 105 26 27 9 26 9 -10 4 l-40 -5 25 20
c13 11 76 47 140 80 63 33 129 69 145 80 17 11 46 20 65 20 l35 1 -30 -19z
m-675 -36 c0 -19 -3 -35 -7 -35 -5 0 -18 -3 -30 -6 -21 -6 -23 -3 -23 29 0 35
9 45 43 46 13 1 17 -7 17 -34z m-81 -12 c8 -18 9 -29 1 -37 -7 -7 -10 -6 -10
3 0 10 -6 9 -25 -3 -21 -14 -25 -14 -25 -2 0 24 22 66 35 66 6 0 17 -12 24
-27z m-84 7 c-3 -5 -12 -10 -20 -10 -14 0 -27 -24 -18 -34 11 -11 23 -6 23 9
0 8 5 15 10 15 19 0 10 -39 -10 -45 -21 -7 -50 9 -50 26 0 15 39 49 56 49 8 0
12 -4 9 -10z m-574 -21 c16 -8 19 -16 13 -42 -8 -41 -10 -43 -29 -27 -14 12
-22 80 -9 80 3 0 14 -5 25 -11z m459 1 c0 -5 -6 -10 -14 -10 -20 0 -40 -26
-26 -35 6 -4 18 1 25 11 13 18 14 17 15 -8 0 -25 -4 -28 -30 -28 -17 0 -33 6
-36 14 -8 22 13 54 38 59 13 2 24 5 26 6 1 0 2 -3 2 -9z m40 -25 c0 -19 -4
-35 -10 -35 -5 0 -10 16 -10 35 0 19 5 35 10 35 6 0 10 -16 10 -35z m1310 -6
c0 -6 -4 -7 -10 -4 -5 3 -10 11 -10 16 0 6 5 7 10 4 6 -3 10 -11 10 -16z
m-132 -35 c16 -47 22 -113 12 -119 -5 -3 -6 -14 -3 -25 3 -12 0 -20 -6 -20 -7
0 -11 -6 -9 -12 3 -18 -40 -108 -52 -108 -6 0 -10 -7 -10 -15 0 -8 -7 -15 -15
-15 -8 0 -15 -7 -15 -15 0 -8 -7 -15 -15 -15 -8 0 -15 -7 -15 -15 0 -10 -7
-15 -17 -13 -10 2 -17 -3 -15 -9 1 -7 -7 -13 -18 -13 -11 0 -20 -4 -20 -10 0
-5 -9 -10 -19 -10 -11 0 -22 -4 -26 -10 -3 -5 -12 -7 -19 -4 -8 3 -17 0 -21
-6 -6 -9 -10 -9 -16 1 -8 12 -11 11 -19 -1 -9 -13 -11 -13 -20 0 -8 11 -12 12
-18 3 -10 -16 -71 0 -118 30 -25 16 -32 27 -28 42 4 16 3 17 -5 5 -12 -17 -12
-17 -15 32 l-3 38 19 -30 c18 -30 18 -31 42 -13 13 10 22 20 20 22 -2 2 -12
-4 -23 -13 -11 -10 -21 -13 -25 -7 -4 5 4 17 16 25 12 9 18 16 12 16 -5 0 -15
-5 -22 -12 -6 -6 -15 -8 -19 -4 -5 4 0 13 10 20 9 7 17 17 17 22 0 4 -5 3 -12
-4 -14 -14 -28 -16 -28 -3 0 5 9 13 21 16 11 4 18 13 15 20 -7 20 22 27 33 7
10 -16 10 -16 11 1 0 21 16 22 24 1 8 -21 -1 -34 -19 -27 -22 8 -18 -8 8 -38
25 -30 82 -55 58 -25 -7 9 -18 16 -23 16 -5 0 -16 6 -24 14 -10 11 -11 17 -2
22 6 4 19 -3 30 -16 12 -14 25 -21 38 -17 11 3 20 4 20 2 0 -2 3 -10 6 -18 3
-10 -2 -17 -13 -20 -10 -3 -2 -5 17 -6 24 0 30 2 21 8 -16 10 -6 31 15 31 9 0
24 5 35 10 16 9 17 15 9 33 -10 20 -10 20 3 5 8 -10 20 -18 26 -18 8 0 10 -8
6 -20 -3 -11 -2 -20 3 -20 13 0 82 77 82 91 0 14 -60 -52 -60 -66 0 -5 -4 -4
-9 4 -6 9 1 29 23 60 17 25 33 48 36 51 5 5 6 8 12 50 2 21 -1 25 -21 24 -23
-1 -23 0 -5 13 16 12 17 16 6 34 -23 37 -6 30 22 -8 22 -29 27 -33 23 -15 -4
17 1 26 23 37 19 10 31 11 35 5 3 -6 -4 -15 -17 -20 -23 -10 -23 -10 -1 -7 29
3 30 -16 1 -25 -20 -5 -19 -6 9 -7 30 -1 31 0 26 31 -3 18 -11 45 -19 60 -18
34 -18 37 4 34 10 -2 22 -19 30 -42z m-228 31 c0 -2 -13 -11 -30 -20 -38 -19
-40 -11 -2 9 31 17 32 18 32 11z m177 -14 c11 -17 9 -22 -19 -35 -38 -20 -35
-20 -41 4 -3 13 1 21 14 25 10 4 19 11 19 16 0 15 15 10 27 -10z m191 -46 c0
-19 -5 -35 -10 -35 -6 0 -8 11 -6 25 3 14 1 28 -4 31 -4 3 -6 10 -2 15 10 18
22 -1 22 -36z m-81 -67 c-3 -8 -6 -5 -6 6 -1 11 2 17 5 13 3 -3 4 -12 1 -19z
m83 -4 c0 -8 -4 -14 -10 -14 -5 0 -10 9 -10 21 0 11 5 17 10 14 6 -3 10 -13
10 -21z m-643 0 c-3 -3 -12 -4 -19 -1 -8 3 -5 6 6 6 11 1 17 -2 13 -5z m633
-49 c0 -8 -4 -17 -10 -20 -6 -3 -9 4 -8 19 2 25 18 26 18 1z m-900 -19 c0 -2
-8 -10 -17 -17 -16 -13 -17 -12 -4 4 13 16 21 21 21 13z m1131 -14 c-5 -9 -19
-26 -32 -37 -17 -15 -15 -10 7 17 32 41 40 48 25 20z m-254 -34 c-3 -7 -5 -2
-5 12 0 14 2 19 5 13 2 -7 2 -19 0 -25z m189 18 c19 -15 18 -16 -7 -41 -15
-15 -33 -25 -42 -23 -13 3 -13 7 0 41 17 41 21 43 49 23z m-1106 0 c0 -3 -15
-14 -32 -26 l-33 -22 30 26 c31 27 35 29 35 22z m518 -49 l37 -4 -36 -1 c-35
-2 -79 26 -79 50 0 6 9 -1 20 -15 14 -17 33 -27 58 -30z m-88 33 c0 -5 -5 -10
-11 -10 -5 0 -7 5 -4 10 3 6 8 10 11 10 2 0 4 -4 4 -10z m837 -6 c-3 -3 -12
-4 -19 -1 -8 3 -5 6 6 6 11 1 17 -2 13 -5z m-40 -10 c-3 -3 -12 -4 -19 -1 -8
3 -5 6 6 6 11 1 17 -2 13 -5z m-738 -41 c2 -2 0 -3 -6 -3 -6 0 -21 9 -34 21
l-24 20 30 -17 c17 -10 32 -19 34 -21z m651 21 c0 -2 -9 -4 -21 -4 -11 0 -18
4 -14 10 5 8 35 3 35 -6z m43 9 c-7 -2 -19 -2 -25 0 -7 3 -2 5 12 5 14 0 19
-2 13 -5z m-303 -56 c-57 -39 -95 -62 -88 -53 13 15 103 75 113 75 5 1 -6 -10
-25 -22z m402 -7 c3 -22 1 -29 -8 -26 -7 3 -18 -2 -24 -10 -13 -15 -40 -19
-40 -6 0 4 5 14 11 22 8 11 12 12 16 2 6 -16 23 -6 23 14 0 8 -4 12 -10 9 -5
-3 -15 -3 -22 1 -8 5 -6 10 8 15 34 13 42 10 46 -21z m-1007 -10 c3 -5 1 -10
-4 -10 -6 0 -11 5 -11 10 0 6 2 10 4 10 3 0 8 -4 11 -10z m930 0 c9 -15 -12
-47 -35 -53 -17 -4 -20 0 -20 29 0 29 3 34 24 34 14 0 28 -4 31 -10z m340 -67
c-5 -14 -9 -12 -30 7 l-25 23 0 -26 c0 -15 -4 -27 -10 -27 -5 0 -10 18 -10 40
0 43 12 50 42 23 17 -15 18 -15 18 4 0 11 3 23 8 27 9 10 16 -50 7 -71z m-645
29 c-24 -42 -141 -125 -148 -104 -2 7 -14 10 -30 6 l-27 -6 25 14 c14 8 63 40
110 71 47 31 86 57 88 57 2 0 -6 -17 -18 -38z m240 14 c0 -29 -20 -46 -21 -19
0 11 -3 13 -6 5 -2 -6 -9 -10 -14 -6 -5 3 -9 -2 -9 -10 0 -9 -4 -16 -10 -16
-5 0 -10 14 -10 31 0 25 3 29 19 24 11 -3 22 -1 26 5 11 18 25 11 25 -14z
m-990 -18 c0 -13 -23 -5 -28 10 -2 7 2 10 12 6 9 -3 16 -11 16 -16z m900 -4
c13 -34 13 -37 -6 -30 -9 4 -23 1 -30 -5 -17 -14 -18 -1 -4 35 5 14 14 26 20
26 6 0 15 -12 20 -26z m400 -13 c0 -32 -4 -40 -22 -45 -43 -11 -48 -7 -48 33
0 33 4 40 23 44 45 9 47 8 47 -32z m-90 10 c0 -10 -34 -21 -64 -21 -38 0 7 25
52 29 6 0 12 -3 12 -8z m-610 -21 c-35 -24 -54 -31 -30 -11 14 11 30 21 35 21
6 0 3 -5 -5 -10z m-585 -10 c3 -6 -1 -7 -9 -4 -18 7 -21 14 -7 14 6 0 13 -4
16 -10z m1095 -25 c0 -29 -5 -37 -26 -45 -41 -16 -54 -12 -54 15 0 14 5 25 10
25 6 0 10 -7 10 -16 0 -11 5 -14 16 -10 9 3 18 6 20 6 2 0 4 10 4 21 0 19 -4
21 -30 16 -31 -7 -43 8 -12 16 51 13 62 8 62 -28z m100 26 c0 -5 -13 -12 -30
-16 -16 -4 -30 -11 -30 -16 0 -5 11 -4 26 1 31 12 34 12 34 1 0 -5 -9 -12 -20
-15 -11 -3 -29 -9 -40 -12 -16 -4 -20 -1 -20 20 0 20 7 27 33 35 43 12 47 13
47 2z m-205 -51 c20 -39 19 -41 -11 -34 -18 5 -29 1 -39 -12 -19 -25 -19 -3
-1 41 18 43 31 44 51 5z m-87 -20 c-1 -39 -10 -51 -23 -30 -11 18 -35 11 -35
-10 0 -11 -4 -20 -10 -20 -5 0 -10 11 -10 25 0 20 6 27 30 32 43 8 48 23 5 16
-19 -3 -35 -3 -35 0 0 6 50 23 72 26 5 1 7 -17 6 -39z m-1318 -5 c0 -3 -11
-10 -25 -15 -14 -5 -25 -14 -25 -20 0 -6 5 -8 12 -4 12 8 7 -4 -24 -48 -14
-20 -28 -28 -49 -28 -35 0 -36 6 -2 45 25 29 25 29 9 3 -9 -16 -12 -28 -6 -28
5 0 10 4 10 8 0 14 76 92 88 92 7 0 12 -2 12 -5z m1638 -29 c2 -16 0 -32 -5
-37 -5 -5 -7 6 -5 27 3 28 1 35 -9 32 -9 -3 -14 -19 -13 -41 1 -20 -3 -34 -7
-31 -13 8 -11 58 3 72 18 18 33 9 36 -22z m-2203 -24 c-4 -5 -75 37 -75 44 0
3 18 -6 39 -18 22 -12 38 -24 36 -26z m1551 14 c-27 -22 -202 -83 -212 -74 -2
3 35 17 84 32 48 15 101 35 117 46 41 26 46 24 11 -4z m592 -4 c4 -26 -13 -52
-34 -52 -15 0 -20 60 -7 74 14 13 38 0 41 -22z m-80 7 c-22 -12 -23 -29 -3
-29 8 0 15 -9 15 -20 0 -11 -2 -20 -4 -20 -2 0 -13 -3 -23 -6 -17 -5 -17 -5 0
6 21 14 22 30 2 30 -18 0 -20 36 -2 43 22 9 32 7 15 -4z m-64 -17 c-14 -9 -15
-62 -2 -62 6 0 8 9 5 20 -3 11 -1 20 5 20 17 0 4 -45 -14 -48 -14 -3 -18 4
-18 31 0 35 6 47 24 47 8 0 7 -3 0 -8z m-74 -33 c-9 -15 -8 -24 1 -37 11 -14
11 -15 -1 -5 -11 10 -16 9 -27 -5 -13 -15 -13 -14 -3 6 9 18 8 27 -2 40 -11
15 -11 15 3 4 14 -10 18 -10 23 3 3 8 8 15 11 15 3 0 1 -9 -5 -21z m-560 7 c0
-2 -7 -7 -16 -10 -8 -3 -12 -2 -9 4 6 10 25 14 25 6z m495 -43 c0 -25 -3 -29
-14 -20 -10 9 -16 7 -27 -8 -13 -17 -14 -16 -14 16 0 42 7 51 35 47 15 -2 20
-10 20 -35z m-1127 -4 c4 0 16 -3 27 -5 11 -3 32 -5 48 -5 44 0 31 -19 -15
-20 -71 -2 -24 -8 201 -24 118 -8 217 -18 220 -21 6 -6 -217 1 -396 12 -99 6
-104 10 -102 74 1 17 3 19 6 8 2 -10 8 -18 11 -19z m-818 -9 c0 -11 -7 -20
-15 -20 -17 0 -18 2 -9 24 9 23 24 20 24 -4z m86 -41 c3 -6 3 -17 0 -25 -5
-12 -9 -12 -26 -2 -11 7 -20 19 -20 26 0 7 -6 12 -12 10 -14 -3 -18 3 -18 27
0 11 7 10 35 -6 19 -12 38 -25 41 -30z m487 28 c-14 -6 -31 -6 -50 1 -26 10
-24 11 22 10 39 -1 45 -3 28 -11z m-564 -56 c5 -9 5 -25 1 -35 -6 -18 -7 -18
-13 -2 -4 9 -11 14 -17 11 -5 -3 -10 1 -10 10 0 12 5 15 18 11 16 -6 16 -5 0
8 -10 7 -18 16 -18 19 0 12 31 -5 39 -22z m121 -7 c0 -14 -6 -24 -14 -24 -17
0 -31 18 -21 28 3 3 10 0 15 -8 6 -9 10 -10 10 -3 0 6 -4 15 -10 18 -16 10
-12 25 5 19 8 -4 15 -17 15 -30z m-83 -24 c-3 -11 -1 -18 4 -14 5 3 9 -5 9
-18 0 -17 -3 -19 -9 -9 -5 7 -14 10 -20 7 -14 -9 -14 -4 -1 28 11 31 25 35 17
6z m61 -22 c16 -16 15 -58 -1 -58 -17 0 -37 20 -37 37 0 21 17 15 25 -9 4 -15
8 -18 12 -10 3 7 -3 22 -13 33 -18 20 -6 27 14 7z m1892 -7 c0 -6 -4 -13 -10
-16 -5 -3 -10 1 -10 9 0 9 5 16 10 16 6 0 10 -4 10 -9z m-74 -28 c-10 -10 -19
5 -10 18 6 11 8 11 12 0 2 -7 1 -15 -2 -18z m34 17 c0 -5 -2 -10 -4 -10 -3 0
-8 5 -11 10 -3 6 -1 10 4 10 6 0 11 -4 11 -10z m-1804 -8 c18 -11 13 -44 -5
-37 -13 4 -12 2 2 -9 23 -18 22 -29 -3 -16 -14 8 -20 20 -18 40 2 31 6 34 24
22z m-156 -17 c0 -8 -7 -15 -15 -15 -8 0 -15 5 -15 11 0 5 5 7 10 4 6 -3 10
-1 10 4 0 6 2 11 5 11 3 0 5 -7 5 -15z m1840 -10 c0 -8 -4 -15 -8 -15 -5 0 -9
7 -9 15 0 8 4 15 9 15 4 0 8 -7 8 -15z m-1810 -15 c-6 -11 -13 -20 -16 -20 -2
0 0 9 6 20 6 11 13 20 16 20 2 0 0 -9 -6 -20z m200 -30 c0 -33 -11 -38 -34
-14 -16 16 -21 46 -10 57 15 14 44 -15 44 -43z m1580 41 c0 -5 -7 -11 -15 -15
-9 -3 -15 0 -15 9 0 8 7 15 15 15 8 0 15 -4 15 -9z m-1026 -16 c3 -9 0 -15 -9
-15 -9 0 -12 6 -9 15 4 8 7 15 9 15 2 0 5 -7 9 -15z m973 -7 c-3 -8 -6 -5 -6
6 -1 11 2 17 5 13 3 -3 4 -12 1 -19z m-1017 8 c0 -2 -7 -7 -16 -10 -8 -3 -12
-2 -9 4 6 10 25 14 25 6z m-489 -53 c-9 -15 -10 -12 -10 17 0 29 1 32 10 18 7
-12 7 -24 0 -35z m-176 17 c-3 -4 0 -11 5 -13 6 -3 5 -4 -2 -3 -7 1 -15 11
-16 21 -3 11 0 15 7 10 6 -3 9 -10 6 -15z m210 -26 c1 -27 -10 -32 -19 -9 -6
17 3 49 13 40 3 -4 6 -18 6 -31z m893 19 c-5 -25 -38 -30 -37 -6 0 10 3 13 6
6 2 -7 9 -13 15 -13 6 0 8 7 4 15 -3 8 -1 15 5 15 6 0 9 -8 7 -17z m34 3 c7 4
8 2 4 -4 -11 -18 -26 -14 -25 6 0 10 3 12 6 4 2 -6 10 -9 15 -6z m-622 -11
c11 -13 10 -14 -4 -9 -9 3 -16 10 -16 15 0 13 6 11 20 -6z m-53 -19 c-13 -14
-16 -14 -29 1 -11 15 -11 16 4 10 10 -3 20 -2 24 4 3 6 8 8 11 5 3 -3 -1 -12
-10 -20z m113 19 c0 -7 -30 -13 -34 -7 -3 4 4 9 15 9 10 1 19 0 19 -2z m-477
-24 c-6 -23 -30 -35 -39 -19 -4 7 -3 8 4 4 7 -4 12 -1 12 8 0 8 6 17 13 19 6
3 13 6 14 6 0 1 -1 -8 -4 -18z m317 0 c0 -6 -4 -13 -10 -16 -5 -3 -10 1 -10 9
0 9 5 16 10 16 6 0 10 -4 10 -9z m-63 -23 c-3 -8 -6 -5 -6 6 -1 11 2 17 5 13
3 -3 4 -12 1 -19z m397 6 c3 -8 2 -12 -4 -9 -6 3 -10 10 -10 16 0 14 7 11 14
-7z m-584 -25 c-7 -11 -14 -18 -17 -15 -3 3 0 12 7 21 18 21 23 19 10 -6z m35
1 c3 -5 1 -10 -4 -10 -6 0 -11 5 -11 10 0 6 2 10 4 10 3 0 8 -4 11 -10z m433
-12 c-2 -18 -12 -24 -41 -29 -21 -3 -40 -3 -42 2 -7 11 6 40 15 34 5 -3 11 -1
15 5 3 5 17 10 31 10 21 0 25 -4 22 -22z m160 0 c-2 -18 -11 -24 -35 -26 -24
-2 -33 1 -33 12 0 8 5 18 10 21 6 3 10 -1 10 -9 0 -9 5 -16 10 -16 6 0 10 9
10 20 0 12 7 20 16 20 10 0 14 -7 12 -22z m129 -4 c-3 -3 -12 -4 -19 -1 -8 3
-5 6 6 6 11 1 17 -2 13 -5z m-927 -30 c0 -2 -9 0 -20 6 -11 6 -20 13 -20 16 0
2 9 0 20 -6 11 -6 20 -13 20 -16z m478 -6 c-2 -11 -10 -22 -18 -24 -8 -1 -32
-5 -52 -9 -34 -7 -38 -5 -38 14 0 11 7 22 15 22 27 3 33 4 39 9 3 3 17 7 31 8
22 2 26 -2 23 -20z m-537 -25 c13 -15 12 -15 -11 -3 -34 17 -36 20 -18 20 9 0
22 -7 29 -17z m854 9 c-3 -3 -20 -11 -38 -18 -17 -6 -40 -15 -50 -19 -14 -6
-16 -4 -10 11 3 11 11 22 16 25 11 8 90 8 82 1z m-789 -47 c17 -16 14 -18 -10
-9 -9 3 -16 10 -16 15 0 13 9 11 26 -6z m579 -15 c-55 -25 -69 -25 -55 0 8 15
20 20 53 19 l42 0 -40 -19z m-505 -31 c0 -4 -7 -6 -15 -3 -8 4 -15 10 -15 15
0 4 7 6 15 3 8 -4 15 -10 15 -15z m370 2 c0 -3 -15 -11 -32 -17 -18 -6 -41
-14 -50 -19 -24 -10 -24 20 -1 34 19 10 83 12 83 2z m-254 -78 c-7 -7 -26 7
-26 19 0 6 6 6 15 -2 9 -7 13 -15 11 -17z"/>
<path d="M625 2890 c3 -5 15 -10 26 -10 11 0 17 5 14 10 -3 6 -15 10 -26 10
-11 0 -17 -4 -14 -10z"/>
<path d="M678 2843 c7 -3 16 -2 19 1 4 3 -2 6 -13 5 -11 0 -14 -3 -6 -6z"/>
<path d="M82 2748 l2 -53 3 48 c4 44 6 47 21 35 15 -12 16 -11 3 5 -23 29 -31
19 -29 -35z"/>
<path d="M105 2701 c-3 -6 5 -15 17 -21 21 -10 21 -10 6 3 -10 8 -15 17 -11
20 3 4 4 7 0 7 -3 0 -8 -4 -12 -9z"/>
<path d="M918 2263 c7 -3 16 -2 19 1 4 3 -2 6 -13 5 -11 0 -14 -3 -6 -6z"/>
<path d="M805 2200 c-13 -5 -14 -9 -5 -9 8 0 24 4 35 9 13 5 14 9 5 9 -8 0
-24 -4 -35 -9z"/>
<path d="M758 2183 c7 -3 16 -2 19 1 4 3 -2 6 -13 5 -11 0 -14 -3 -6 -6z"/>
<path d="M825 2640 c-3 -5 -1 -10 4 -10 6 0 11 5 11 10 0 6 -2 10 -4 10 -3 0
-8 -4 -11 -10z"/>
<path d="M1700 2451 c0 -25 6 -27 13 -6 4 8 2 17 -3 20 -6 4 -10 -3 -10 -14z"/>
<path d="M1743 2453 c9 -2 23 -2 30 0 6 3 -1 5 -18 5 -16 0 -22 -2 -12 -5z"/>
<path d="M1745 2423 c11 -3 23 -10 27 -17 5 -7 8 -5 8 7 0 12 -7 17 -27 16
-22 -1 -23 -2 -8 -6z"/>
<path d="M1687 2390 c-3 -11 -1 -20 4 -20 5 0 9 9 9 20 0 11 -2 20 -4 20 -2 0
-6 -9 -9 -20z"/>
<path d="M1730 2356 c14 -8 27 -12 29 -10 6 6 -1 11 -29 18 l-25 7 25 -15z"/>
<path d="M1714 2325 c11 -8 22 -12 25 -9 6 6 -19 24 -34 24 -5 -1 -1 -7 9 -15z"/>
<path d="M1680 2310 c0 -5 10 -15 23 -21 22 -12 22 -12 3 10 -21 23 -26 26
-26 11z"/>
<path d="M1660 2286 c0 -4 7 -14 15 -22 8 -9 15 -11 15 -6 0 5 -7 15 -15 22
-8 7 -15 9 -15 6z"/>
<path d="M1531 2253 c-19 -21 -7 -27 24 -10 25 12 26 15 9 19 -11 3 -26 -1
-33 -9z"/>
<path d="M1640 2259 c0 -20 16 -43 23 -32 3 4 -1 17 -9 28 -10 13 -14 15 -14
4z"/>
<path d="M1610 2240 c0 -8 5 -22 10 -30 9 -13 10 -13 10 0 0 8 -5 22 -10 30
-9 13 -10 13 -10 0z"/>
<path d="M1341 2220 c-31 -26 -17 -26 16 0 14 11 22 20 17 20 -5 -1 -20 -10
-33 -20z"/>
<path d="M1370 2205 c-13 -14 -19 -25 -13 -25 6 0 18 11 27 25 9 14 15 25 13
25 -2 0 -14 -11 -27 -25z"/>
<path d="M1580 2220 c0 -8 5 -22 10 -30 9 -13 10 -13 10 0 0 8 -5 22 -10 30
-9 13 -10 13 -10 0z"/>
<path d="M1520 2191 c0 -17 2 -31 4 -31 8 0 13 51 5 56 -5 3 -9 -9 -9 -25z"/>
<path d="M1552 2195 c3 -33 16 -33 14 0 0 14 -4 25 -8 25 -4 0 -7 -11 -6 -25z"/>
<path d="M1396 2191 c-10 -10 -14 -21 -9 -24 5 -3 13 6 20 19 13 29 11 30 -11
5z"/>
<path d="M1426 2185 c-9 -14 -13 -25 -8 -25 5 0 14 11 20 25 6 14 10 25 8 25
-2 0 -11 -11 -20 -25z"/>
<path d="M1467 2203 c-4 -3 -7 -11 -7 -17 0 -6 5 -5 12 2 6 6 9 14 7 17 -3 3
-9 2 -12 -2z"/>
<path d="M1488 2175 c-3 -14 -1 -25 3 -25 5 0 9 11 9 25 0 14 -2 25 -4 25 -2
0 -6 -11 -8 -25z"/>
<path d="M1445 2160 c-3 -5 -1 -10 4 -10 6 0 11 5 11 10 0 6 -2 10 -4 10 -3 0
-8 -4 -11 -10z"/>
<path d="M1710 2570 c-8 -5 -11 -12 -7 -16 4 -4 15 0 24 9 18 18 8 23 -17 7z"/>
<path d="M2150 2229 c0 -24 23 -21 28 4 2 10 -3 17 -12 17 -10 0 -16 -9 -16
-21z"/>
<path d="M2393 2203 c-7 -2 -13 -14 -13 -25 0 -29 44 -21 48 10 3 22 -8 27
-35 15z"/>
<path d="M2280 2039 c0 -38 24 -35 28 4 2 19 -1 27 -12 27 -11 0 -16 -10 -16
-31z"/>
<path d="M1990 1984 c0 -9 7 -14 17 -12 25 5 28 28 4 28 -12 0 -21 -6 -21 -16z"/>
<path d="M150 1910 c0 -5 5 -10 10 -10 6 0 10 5 10 10 0 6 -4 10 -10 10 -5 0
-10 -4 -10 -10z"/>
<path d="M290 1751 c0 -12 5 -21 10 -21 6 0 10 6 10 14 0 8 -4 18 -10 21 -5 3
-10 -3 -10 -14z"/>
<path d="M755 1640 c-3 -5 -1 -10 4 -10 6 0 11 5 11 10 0 6 -2 10 -4 10 -3 0
-8 -4 -11 -10z"/>
<path d="M2745 2170 c-22 -16 -62 -37 -90 -46 -121 -40 -164 -73 -199 -149
-23 -51 -25 -53 -210 -156 -498 -278 -676 -400 -690 -473 -6 -32 -11 -36 -71
-56 -60 -20 -77 -33 -220 -172 -130 -126 -155 -155 -155 -179 0 -34 2 -34 38
-12 17 11 13 4 -13 -20 -22 -20 -48 -39 -58 -42 -12 -5 -16 -13 -12 -31 3 -13
7 -35 10 -49 5 -24 25 -36 25 -15 0 6 5 10 10 10 12 0 3 -48 -12 -67 -6 -8 -6
-38 2 -85 15 -86 17 -93 36 -77 17 14 18 0 1 -23 -14 -17 -11 -88 3 -88 15 0
30 28 24 44 -8 22 29 75 72 103 26 17 34 19 34 8 0 -22 28 -18 42 5 7 11 19
20 26 20 10 0 9 6 -2 28 -15 29 -12 72 6 72 5 0 7 4 3 10 -3 5 -11 8 -18 6 -7
-1 -9 -1 -4 1 14 9 7 22 -15 26 l-23 4 23 2 c13 0 25 -6 29 -15 3 -9 20 -22
37 -29 28 -12 31 -11 41 8 6 12 17 22 25 23 8 0 10 -1 3 -3 -15 -5 -26 -34
-16 -44 10 -9 83 -29 83 -23 0 11 -24 49 -34 56 -7 5 -7 8 2 8 8 0 23 10 33
22 l20 23 -16 -27 c-13 -20 -13 -27 -3 -31 9 -4 9 -6 1 -6 -8 -1 -7 -10 5 -31
19 -33 60 -49 73 -28 13 20 6 31 -32 44 -19 7 -29 13 -22 13 6 1 23 -3 37 -9
31 -11 33 -1 9 38 -9 15 -13 24 -8 20 4 -4 15 -2 23 5 13 9 14 9 8 -1 -9 -14
12 -16 34 -2 13 8 12 10 -4 10 -11 0 -17 3 -14 6 4 3 176 -47 385 -112 208
-64 388 -118 400 -119 52 -7 130 -39 149 -63 28 -34 69 -40 84 -12 11 21 6 40
-10 40 -17 0 -63 21 -57 26 3 3 38 -4 78 -16 l72 -22 18 24 c10 12 24 34 31
48 7 14 15 27 19 30 15 13 299 441 299 450 0 35 -41 -16 -170 -211 -80 -120
-149 -218 -155 -219 -42 0 -30 24 117 238 115 165 157 220 169 216 18 -5 59
38 59 63 0 20 -29 28 -51 15 -20 -13 -49 -16 -49 -6 0 17 105 164 116 162 11
-3 114 135 261 347 41 59 42 63 62 216 12 86 21 164 21 173 0 20 -36 21 -82 2
-33 -14 -47 -11 -299 53 -145 38 -273 71 -284 75 -13 4 -33 -4 -60 -24z m215
-148 c43 -21 52 -55 18 -73 -13 -7 -57 -12 -98 -12 -115 0 -187 40 -147 80 34
35 159 37 227 5z m190 -176 c0 -2 -12 -11 -27 -20 l-28 -17 24 20 c23 21 31
25 31 17z m-559 -151 c76 -27 96 -58 60 -94 -45 -45 -212 -46 -271 -3 -28 22
-37 56 -20 78 29 34 158 44 231 19z m-501 -109 c0 -3 -4 -8 -10 -11 -5 -3 -10
-1 -10 4 0 6 5 11 10 11 6 0 10 -2 10 -4z m971 -33 c-10 -16 -91 -123 -178
-239 -147 -196 -174 -226 -390 -434 -128 -123 -233 -226 -233 -230 0 -3 34
-16 76 -28 42 -13 74 -25 72 -28 -3 -2 -149 40 -324 95 -175 55 -338 105 -362
112 -23 7 -40 14 -38 17 3 2 20 -1 37 -7 18 -6 35 -8 38 -3 3 5 31 22 61 40
51 29 59 30 100 20 71 -16 256 -13 330 6 140 36 242 102 280 181 21 44 24 99
8 189 -2 15 49 49 267 177 149 87 271 158 273 159 2 0 -6 -12 -17 -27z m-1141
7 c-8 -5 -19 -10 -25 -10 -5 0 -3 5 5 10 8 5 20 10 25 10 6 0 3 -5 -5 -10z
m-50 -20 c-8 -5 -19 -10 -25 -10 -5 0 -3 5 5 10 8 5 20 10 25 10 6 0 3 -5 -5
-10z m359 -236 c5 -5 -9 -24 -18 -24 -5 0 -19 9 -32 20 l-24 21 35 -7 c19 -3
37 -8 39 -10z m781 12 c0 -2 -8 -10 -17 -17 -16 -13 -17 -12 -4 4 13 16 21 21
21 13z m-1215 -36 c-3 -5 -14 -10 -23 -9 -14 0 -13 2 3 9 27 11 27 11 20 0z
m290 -21 c22 -5 51 -11 65 -13 30 -5 70 -50 70 -81 0 -29 -48 -71 -98 -85 -20
-5 -64 -9 -97 -8 l-60 2 70 6 70 7 -90 0 c-115 -1 -165 24 -165 83 0 28 47 80
73 80 7 0 -3 -9 -21 -20 -18 -11 -35 -27 -38 -35 -18 -47 44 -110 96 -98 14 3
46 26 72 51 39 38 45 48 35 60 -10 13 -8 14 9 8 14 -4 26 -1 34 9 10 13 9 15
-8 15 -26 0 -87 -56 -69 -64 7 -2 4 -5 -6 -5 -10 -1 -16 -5 -12 -10 3 -5 1
-12 -5 -16 -5 -3 -10 0 -10 7 0 7 -14 -2 -31 -20 l-29 -33 -31 18 c-25 15 -29
23 -27 53 2 26 11 40 35 56 18 12 29 25 25 29 -4 3 5 4 19 0 16 -4 30 -2 33 4
9 14 39 14 91 0z m305 -9 c0 -5 -7 -10 -15 -10 -8 0 -15 5 -15 10 0 6 7 10 15
10 8 0 15 -4 15 -10z m-670 -23 c0 -24 -54 -65 -113 -87 -53 -20 -78 -42 -64
-57 3 -3 21 5 39 18 l33 23 -24 -27 c-23 -25 -71 -38 -71 -19 0 13 54 84 81
108 59 50 119 71 119 41z m-370 -302 c19 -7 28 -13 20 -13 -8 0 -31 6 -50 13
-19 7 -28 13 -20 13 8 0 31 -6 50 -13z m130 -40 c19 -7 28 -13 20 -13 -8 0
-31 6 -50 13 -19 7 -28 13 -20 13 8 0 31 -6 50 -13z m130 -40 c19 -7 28 -13
20 -13 -8 0 -31 6 -50 13 -19 7 -28 13 -20 13 8 0 31 -6 50 -13z m-190 -55 c6
-11 8 -20 6 -20 -3 0 -10 9 -16 20 -6 11 -8 20 -6 20 3 0 10 -9 16 -20z m77
14 c-3 -3 -12 -4 -19 -1 -8 3 -5 6 6 6 11 1 17 -2 13 -5z m-136 -22 c-7 -2
-18 1 -23 6 -8 8 -4 9 13 5 13 -4 18 -8 10 -11z m44 -12 c3 -6 -1 -7 -9 -4
-18 7 -21 14 -7 14 6 0 13 -4 16 -10z m-255 -78 c0 -7 -4 -10 -10 -7 -5 3 -10
16 -10 28 0 18 2 19 10 7 5 -8 10 -21 10 -28z m1603 -69 c2 -5 -8 -24 -22 -44
-22 -30 -30 -35 -49 -28 l-23 9 27 35 c24 32 57 46 67 28z"/>
<path d="M2833 1963 c0 -9 4 -10 14 -2 7 6 13 12 13 14 0 1 -6 2 -13 2 -8 0
-14 -6 -14 -14z"/>
<path d="M2509 1661 c-14 -15 -23 -33 -21 -40 3 -8 0 -11 -7 -7 -6 4 -11 0
-11 -10 0 -14 8 -10 35 16 19 18 32 37 29 42 -3 4 5 12 18 17 20 9 21 10 3 9
-11 0 -32 -12 -46 -27z"/>
<path d="M2372 1668 c-17 -17 -15 -43 4 -58 13 -12 14 -10 3 13 -9 21 -9 30 1
42 15 18 9 20 -8 3z"/>
<path d="M2640 1653 c9 -19 7 -26 -11 -44 -12 -12 -16 -20 -9 -17 7 2 19 13
27 24 11 17 11 23 -3 40 -15 18 -15 18 -4 -3z"/>
<path d="M2445 1590 c3 -5 8 -10 11 -10 2 0 4 5 4 10 0 6 -5 10 -11 10 -5 0
-7 -4 -4 -10z"/>
<path d="M2157 1229 c7 -7 15 -10 18 -7 3 3 -2 9 -12 12 -14 6 -15 5 -6 -5z"/>
<path d="M2188 1175 c-3 -34 -8 -43 -43 -63 -26 -15 -31 -21 -15 -16 62 17 93
62 72 101 -9 15 -11 11 -14 -22z"/>
<path d="M1637 769 c-10 -6 -25 -8 -33 -5 -18 7 -18 1 3 -30 21 -32 63 -50 75
-32 15 24 8 36 -24 43 l-32 7 30 13 c16 8 22 14 14 14 -8 0 -23 -4 -33 -10z"/>
<path d="M1343 698 c-9 -21 -7 -24 26 -35 l36 -12 -33 5 c-33 6 -33 5 -21 -18
14 -27 28 -38 50 -38 21 0 34 31 17 42 -11 6 -11 8 0 8 9 0 10 5 2 19 -18 35
-11 35 13 0 25 -37 50 -47 72 -29 21 18 18 27 -10 34 -13 3 -37 11 -52 18 -15
6 -33 12 -39 13 -6 2 -20 6 -31 9 -14 5 -23 0 -30 -16z"/>
<path d="M1706 704 c-3 -9 -6 -17 -6 -19 0 -3 89 -35 97 -35 2 0 -3 13 -11 29
-22 41 -68 56 -80 25z"/>
<path d="M1790 691 c0 -19 47 -61 68 -61 17 0 32 18 32 36 0 5 -40 21 -75 30
-16 4 -25 2 -25 -5z"/>
<path d="M1616 673 c-4 -9 -3 -19 1 -23 11 -10 75 -31 80 -26 9 9 -22 55 -41
60 -31 8 -33 8 -40 -11z"/>
<path d="M1700 665 c0 -2 5 -16 12 -30 15 -33 56 -44 74 -20 8 10 12 20 10 22
-6 7 -96 32 -96 28z"/>
<path d="M1529 638 c-12 -23 -15 -21 35 -36 48 -14 54 -10 33 21 -22 33 -54
41 -68 15z"/>
<path d="M1903 641 c-11 -18 -8 -21 34 -35 26 -9 48 -14 50 -12 9 9 -22 55
-41 60 -30 8 -30 8 -43 -13z"/>
<path d="M1990 632 c0 -16 33 -54 54 -62 23 -8 46 4 46 25 0 7 -21 20 -47 29
-54 19 -53 18 -53 8z"/>
<path d="M1610 620 c0 -20 41 -51 63 -48 38 5 32 33 -11 46 -48 15 -52 15 -52
2z"/>
<path d="M1810 611 c-11 -22 0 -31 66 -47 l26 -7 -16 32 c-9 17 -21 31 -25 31
-5 0 -16 3 -24 6 -10 3 -20 -3 -27 -15z"/>
<path d="M1474 611 c4 -5 1 -11 -6 -13 -9 -3 -9 -6 0 -12 7 -4 12 -2 12 4 0 6
5 8 13 4 8 -5 8 -2 -2 9 -14 18 -26 23 -17 8z"/>
<path d="M1350 578 c0 -32 9 -58 20 -58 10 0 1 62 -11 75 -5 5 -9 -1 -9 -17z"/>
<path d="M1440 585 c0 -8 4 -15 10 -15 5 0 7 7 4 15 -4 8 -8 15 -10 15 -2 0
-4 -7 -4 -15z"/>
<path d="M1532 575 c17 -38 78 -47 78 -11 0 7 -17 18 -39 24 -52 16 -52 16
-39 -13z"/>
<path d="M1720 581 c-5 -11 -10 -22 -10 -24 0 -6 81 -29 86 -24 10 10 -10 39
-37 52 -26 14 -29 14 -39 -4z"/>
<path d="M1907 574 c20 -31 53 -46 71 -32 22 18 13 35 -27 46 -57 18 -64 16
-44 -14z"/>
<path d="M2109 579 c-6 -12 -9 -22 -7 -23 7 -6 98 -35 98 -31 0 21 -28 56 -51
64 -25 8 -30 7 -40 -10z"/>
<path d="M1380 567 c0 -31 42 -66 105 -87 68 -23 85 -21 85 10 0 23 -28 43
-90 63 -81 26 -100 29 -100 14z"/>
<path d="M1800 564 c1 -17 35 -52 57 -58 16 -5 25 -1 33 14 9 17 7 22 -15 30
-45 17 -75 22 -75 14z"/>
<path d="M2216 548 c8 -27 2 -23 41 -36 28 -9 34 -8 43 8 8 16 4 20 -37 34
-58 20 -56 20 -47 -6z"/>
<path d="M1626 544 c-8 -20 -10 -18 33 -33 48 -16 53 -14 40 12 -21 39 -61 51
-73 21z"/>
<path d="M2012 548 c-6 -6 -12 -15 -12 -19 0 -9 92 -41 99 -34 9 9 -35 60 -55
63 -11 1 -25 -3 -32 -10z"/>
<path d="M1710 535 c0 -34 55 -71 78 -53 25 21 15 30 -55 52 -13 4 -23 4 -23
1z"/>
<path d="M2100 535 c0 -2 5 -15 11 -29 13 -28 54 -42 75 -25 23 19 17 26 -33
43 -51 18 -53 18 -53 11z"/>
<path d="M1910 511 c-9 -17 -4 -21 37 -35 54 -19 53 -18 53 -7 0 15 -48 61
-64 61 -8 0 -20 -9 -26 -19z"/>
<path d="M2323 512 c-10 -16 -6 -20 34 -31 54 -14 60 -11 36 17 -26 30 -56 36
-70 14z"/>
<path d="M1346 500 c11 -11 897 -319 903 -314 2 2 2 7 -1 10 -6 6 -896 314
-906 314 -3 0 -2 -4 4 -10z"/>
<path d="M1620 503 c1 -14 34 -50 54 -57 12 -4 23 -1 28 6 12 20 10 28 -14 37
-49 18 -68 22 -68 14z"/>
<path d="M2000 505 c0 -2 5 -16 12 -30 13 -30 52 -43 73 -25 23 19 19 25 -35
42 -27 9 -50 15 -50 13z"/>
<path d="M1816 484 c-3 -9 -6 -17 -6 -19 0 -2 20 -10 45 -18 25 -9 45 -14 45
-12 0 19 -27 54 -44 59 -31 8 -33 8 -40 -10z"/>
<path d="M2221 487 c-20 -20 -12 -34 28 -45 57 -18 62 -16 49 13 -13 29 -60
49 -77 32z"/>
<path d="M1900 471 c0 -14 49 -61 63 -61 14 0 43 27 36 34 -12 10 -99 34 -99
27z"/>
<path d="M1726 454 c-3 -9 -6 -17 -6 -19 0 -2 20 -10 45 -18 51 -18 57 -8 20
28 -28 29 -50 32 -59 9z"/>
<path d="M2325 449 c9 -29 4 -25 41 -33 22 -5 35 -2 43 8 11 13 6 17 -31 26
-24 7 -47 14 -52 17 -4 3 -5 -5 -1 -18z"/>
<path d="M2110 445 c-13 -15 3 -25 67 -41 24 -6 25 -6 13 17 -22 41 -57 52
-80 24z"/>
<path d="M1810 439 c0 -15 47 -59 63 -59 12 0 27 20 27 35 0 2 -20 10 -45 18
-26 9 -45 12 -45 6z"/>
<path d="M2015 420 c-17 -19 -16 -20 9 -30 15 -5 38 -13 52 -16 23 -6 24 -5
13 19 -6 14 -22 29 -34 35 -19 9 -26 7 -40 -8z"/>
<path d="M2218 411 c21 -37 59 -49 77 -24 14 19 11 21 -72 47 -23 7 -23 7 -5
-23z"/>
<path d="M2681 404 c0 -11 3 -14 6 -6 3 7 2 16 -1 19 -3 4 -6 -2 -5 -13z"/>
<path d="M1919 394 c-14 -17 -14 -18 35 -38 50 -21 49 -21 32 13 -18 33 -50
45 -67 25z"/>
<path d="M2322 379 c-14 -22 -6 -27 48 -34 42 -6 43 -5 28 17 -21 31 -62 41
-76 17z"/>
<path d="M2010 355 c0 -8 4 -15 10 -15 5 0 7 7 4 15 -4 8 -8 15 -10 15 -2 0
-4 -7 -4 -15z"/>
<path d="M2225 350 c-17 -19 -16 -20 9 -30 15 -5 38 -13 51 -16 23 -6 23 -5
12 20 -18 38 -51 49 -72 26z"/>
<path d="M2160 350 c0 -5 5 -10 11 -10 5 0 7 5 4 10 -3 6 -8 10 -11 10 -2 0
-4 -4 -4 -10z"/>
<path d="M2060 322 c0 -16 6 -34 13 -39 11 -9 189 -73 202 -73 3 0 5 15 5 34
0 31 -4 36 -37 47 -21 6 -43 15 -48 20 -6 4 -31 13 -56 18 -25 6 -53 13 -62
17 -14 5 -17 0 -17 -24z"/>
<path d="M2320 336 c0 -24 23 -54 44 -58 43 -8 63 26 24 41 -44 16 -68 22 -68
17z"/>
<path d="M2520 302 c0 -4 14 -21 32 -38 l31 -29 -22 32 c-23 35 -41 50 -41 35z"/>
<path d="M2655 200 c3 -5 8 -10 11 -10 2 0 4 5 4 10 0 6 -5 10 -11 10 -5 0 -7
-4 -4 -10z"/>
</g>
</svg>
