<?xml version="1.0" standalone="no"?>
<!DOCTYPE svg PUBLIC "-//W3C//DTD SVG 20010904//EN"
 "http://www.w3.org/TR/2001/REC-SVG-20010904/DTD/svg10.dtd">
<svg version="1.0" xmlns="http://www.w3.org/2000/svg"
 width="4073.000000pt" height="2662.000000pt" viewBox="0 0 4073.000000 2662.000000"
 preserveAspectRatio="xMidYMid meet">

<g transform="translate(0.000000,2662.000000) scale(0.100000,-0.100000)"
fill="#000000" stroke="none">
<path d="M605 26589 c-225 -33 -416 -175 -515 -384 -94 -196 -92 -403 5 -600
97 -198 275 -331 495 -371 63 -11 845 -13 4705 -14 l4630 0 3325 -9087 c1829
-4998 3392 -9270 3473 -9492 163 -448 182 -486 297 -595 77 -73 163 -123 265
-158 l70 -23 9298 -3 c8182 -2 9306 0 9369 13 253 52 455 250 520 507 30 119
22 280 -19 393 -72 200 -223 349 -428 422 l-80 28 -9025 5 -9024 5 -3467 9475
c-1907 5211 -3478 9495 -3491 9519 -83 160 -251 292 -443 348 -57 17 -315 18
-4980 19 -2769 1 -4946 -2 -4980 -7z"/>
<path d="M21421 20799 c-193 -33 -220 -42 -227 -78 -5 -23 -18 -30 -124 -64
-319 -103 -542 -277 -651 -511 -17 -36 -33 -66 -36 -66 -2 0 -459 115 -1015
256 -555 140 -1013 253 -1016 249 -12 -11 -5 -110 10 -146 23 -54 71 -102 125
-127 26 -12 379 -105 783 -207 404 -102 742 -188 750 -192 10 -3 11 -7 3 -10
-6 -2 -445 -78 -974 -167 l-962 -163 -26 -31 c-23 -27 -47 -35 -226 -82 -246
-65 -273 -75 -281 -106 -7 -26 22 -207 37 -235 20 -38 39 -39 285 -20 233 18
239 18 257 0 10 -11 27 -19 39 -19 18 0 2577 430 2651 446 21 4 27 2 27 -11 0
-27 63 -83 101 -90 23 -4 398 56 1154 184 616 104 1142 195 1168 202 61 15
154 75 190 122 32 42 57 107 57 147 0 26 3 28 148 65 81 21 155 42 164 47 9 4
18 23 20 41 3 32 4 32 78 44 116 18 195 16 239 -7 24 -12 71 -59 126 -125 162
-197 273 -257 450 -241 84 8 351 52 365 61 15 9 12 45 -5 51 -8 3 -87 -6 -176
-21 -292 -49 -373 -30 -516 120 -43 45 -100 107 -126 138 -84 99 -161 121
-322 93 -119 -21 -124 -21 -136 10 l-10 27 -122 -7 c-67 -4 -144 -9 -172 -12
l-50 -5 -25 52 c-18 37 -39 62 -73 85 -65 45 -116 59 -212 58 -105 0 -2274
-366 -2325 -392 -41 -21 -80 -75 -80 -112 0 -25 -4 -28 -42 -33 -24 -3 -45 -4
-47 -1 -2 2 3 32 13 66 50 182 199 340 423 450 83 41 105 48 122 39 11 -6 33
-11 49 -11 50 0 383 60 403 73 27 17 32 45 20 113 -18 96 -25 98 -280 53z
m-2036 -525 c786 -197 905 -229 911 -246 4 -12 0 -26 -9 -36 -14 -13 -109 8
-929 213 -502 125 -919 233 -927 240 -20 19 -5 55 25 55 13 0 431 -102 929
-226z m1418 -497 c11 -59 17 -110 14 -113 -3 -3 -203 -39 -444 -80 -680 -115
-1292 -219 -1713 -290 -212 -35 -394 -66 -406 -69 -19 -4 -22 2 -34 68 -7 39
-15 93 -17 118 l-5 46 44 7 c23 4 57 10 73 12 17 3 53 9 80 14 28 5 253 44
500 85 248 42 502 85 565 96 63 11 131 22 150 25 19 3 280 47 580 99 300 51
556 93 570 92 23 -2 25 -8 43 -110z"/>
<path d="M29880 20624 c-144 -37 -164 -53 -1205 -889 -544 -438 -1002 -808
-1017 -823 -40 -37 -36 -70 15 -136 193 -254 2497 -3107 2516 -3115 13 -7 33
-9 45 -5 37 11 353 272 389 321 130 179 141 405 26 562 -22 31 -1015 1270
-1336 1668 l-34 42 296 238 c162 131 324 253 358 271 59 32 66 34 152 30 100
-4 171 -30 247 -90 42 -33 336 -393 387 -473 43 -68 65 -159 59 -250 -7 -104
-42 -171 -128 -243 -137 -114 -140 -118 -140 -149 0 -24 23 -60 105 -161 l105
-131 -74 -60 c-87 -71 -116 -121 -116 -199 0 -129 92 -221 220 -222 64 0 110
21 195 89 31 24 57 42 59 40 95 -123 213 -268 228 -281 50 -44 55 -41 513 327
237 190 460 376 496 414 188 194 233 498 110 746 -31 63 -128 190 -446 584
-223 277 -404 507 -403 511 2 4 23 23 48 41 81 61 122 181 86 250 -7 15 -96
129 -196 254 -156 195 -189 230 -228 247 -74 33 -163 10 -246 -63 l-35 -30
-199 249 c-110 136 -223 269 -253 296 -62 54 -188 119 -274 141 -75 19 -251
19 -325 -1z m1450 -942 c188 -233 191 -239 130 -282 -55 -39 -65 -32 -249 198
-163 204 -170 215 -158 239 16 30 66 64 89 61 9 -2 93 -99 188 -216z m-1790
-14 c167 -77 258 -229 248 -414 -4 -75 -9 -93 -47 -167 -32 -63 -55 -92 -97
-126 -259 -207 -630 -68 -686 258 -34 202 82 391 287 464 75 26 221 19 295
-15z m1831 -2109 c29 -15 42 -57 29 -88 -6 -14 -65 -69 -131 -121 -66 -52
-130 -104 -143 -115 -14 -11 -96 -77 -184 -147 -132 -106 -165 -128 -192 -128
-46 0 -70 25 -70 70 0 36 5 42 149 158 82 67 158 128 168 136 10 8 83 67 163
131 145 115 169 127 211 104z"/>
<path d="M29299 19563 c-207 -54 -287 -309 -148 -467 142 -161 387 -130 480
60 29 59 31 70 27 143 -4 61 -10 88 -30 122 -72 122 -199 177 -329 142z"/>
<path d="M16412 19892 c-74 -26 -138 -54 -143 -63 -6 -11 -4 -31 6 -58 16 -47
19 -44 -73 -72 -24 -7 -41 -16 -40 -19 2 -4 136 -388 298 -854 162 -465 299
-846 305 -846 31 0 482 167 507 188 38 32 58 73 58 119 0 45 -490 1463 -519
1503 -30 41 -77 63 -135 62 -52 0 -52 0 -72 41 -12 27 -26 43 -39 44 -11 1
-80 -19 -153 -45z"/>
<path d="M34303 19860 c-48 -11 -78 -34 -121 -93 -53 -71 -1895 -2796 -1912
-2827 -21 -40 -16 -121 11 -169 20 -36 68 -73 314 -239 2045 -1385 2293 -1551
2334 -1562 56 -14 136 7 172 47 14 15 74 99 133 185 l106 157 -152 104 c-84
57 -538 364 -1008 682 -470 318 -859 581 -863 585 -6 5 1271 1910 1320 1969 2
3 63 -36 136 -85 72 -50 230 -157 349 -238 l218 -147 -45 -67 c-79 -117 -71
-129 208 -316 170 -114 192 -126 232 -126 43 0 45 1 92 70 27 39 53 68 61 65
6 -2 186 -122 398 -266 212 -143 387 -259 388 -257 23 26 370 548 377 565 5
13 9 47 9 75 0 105 83 43 -1335 1002 -799 541 -1305 878 -1330 885 -44 12 -47
12 -92 1z"/>
<path d="M38035 19687 c-16 -8 -38 -23 -47 -33 -9 -11 -135 -260 -279 -554
-254 -516 -263 -537 -264 -595 0 -89 18 -108 172 -184 70 -35 639 -313 1263
-618 1133 -554 1135 -555 1188 -551 44 4 59 10 87 39 24 24 113 195 296 569
221 453 262 542 262 580 1 53 -22 101 -60 127 -16 11 -584 291 -1263 623
-1301 636 -1285 629 -1355 597z m291 -268 c135 -64 400 -194 744 -365 270
-134 261 -114 155 -336 -43 -90 -109 -225 -146 -300 -38 -76 -65 -138 -61
-138 4 0 2 -4 -4 -8 -6 -4 -43 -73 -81 -154 -72 -150 -88 -168 -141 -168 -39
0 -1069 502 -1099 536 -43 48 -38 63 142 429 289 587 276 565 330 565 18 0 87
-26 161 -61z m1267 -620 c81 -41 75 -107 -25 -304 l-35 -70 18 -40 c27 -58 25
-141 -4 -196 -29 -55 -96 -107 -148 -115 -40 -7 -41 -7 -104 -135 -36 -70 -74
-135 -87 -143 -29 -20 -97 -21 -125 -1 -13 9 -28 33 -34 54 -10 34 -8 45 16
102 15 35 43 95 63 133 32 63 34 72 23 100 -26 63 -31 105 -21 153 20 89 90
160 167 170 39 5 40 6 105 137 55 111 72 135 100 149 39 20 62 21 91 6z m337
-169 c11 -11 20 -29 20 -40 0 -11 -27 -77 -59 -146 l-60 -125 -60 31 c-34 17
-61 35 -61 40 0 12 107 229 122 248 16 19 75 15 98 -8z m180 -85 c52 -27 49
-53 -18 -191 -34 -68 -66 -124 -72 -124 -9 0 -108 46 -118 55 -2 2 25 59 59
128 73 145 91 162 149 132z m223 -113 c28 -25 20 -65 -38 -184 -31 -62 -58
-114 -61 -117 -6 -7 -124 51 -124 61 0 5 27 62 60 129 62 122 82 144 125 132
11 -3 28 -12 38 -21z m187 -92 c31 -31 25 -61 -40 -190 l-60 -120 -61 30 c-52
27 -59 34 -53 53 13 43 106 222 122 235 24 18 69 15 92 -8z m-790 -70 l59 -30
-62 -130 c-34 -71 -68 -130 -75 -130 -20 0 -112 49 -112 60 0 10 123 260 128
260 1 0 29 -13 62 -30z m200 -93 c36 -18 45 -28 46 -50 1 -15 -3 -27 -7 -27
-7 0 -20 -30 -25 -59 -2 -8 -9 -18 -16 -22 -7 -5 -10 -9 -6 -9 7 0 -47 -106
-63 -124 -4 -5 -25 0 -47 12 -22 11 -42 19 -44 18 -1 -2 -10 4 -19 13 -15 15
-12 24 35 121 86 173 73 163 146 127z m203 -103 c29 -15 53 -28 55 -29 3 -3
-115 -255 -123 -264 -8 -7 -125 51 -125 62 0 16 125 257 133 257 4 0 31 -12
60 -26z m192 -90 c28 -15 51 -28 53 -29 7 -6 -121 -265 -130 -265 -8 0 -108
48 -118 57 -7 7 124 263 135 263 5 0 33 -12 60 -26z m-762 -60 c29 -15 53 -28
55 -29 2 -2 -26 -61 -62 -133 -71 -142 -88 -157 -145 -128 -32 17 -44 47 -31
80 30 77 111 236 120 236 6 0 34 -12 63 -26z m247 -134 c0 -6 -27 -64 -60
-131 -65 -128 -82 -144 -133 -127 -28 10 -47 35 -47 61 0 8 27 71 61 141 l61
125 59 -29 c32 -17 59 -35 59 -40z m150 -60 c33 -17 60 -32 60 -35 0 -13 -123
-251 -133 -257 -39 -25 -107 6 -107 50 -1 22 107 269 118 271 1 1 29 -13 62
-29z m193 -96 c29 -15 53 -27 55 -29 1 -1 -20 -49 -48 -106 -27 -57 -50 -109
-50 -116 0 -23 -53 -54 -80 -48 -75 19 -77 67 -10 197 28 53 50 104 50 112 0
23 23 20 83 -10z"/>
<path d="M39298 18384 c-30 -16 -58 -61 -58 -94 0 -60 72 -119 127 -105 36 9
80 53 87 87 12 61 -44 129 -106 128 -13 -1 -35 -7 -50 -16z"/>
<path d="M15096 19314 c-528 -184 -973 -342 -990 -352 -35 -20 -76 -92 -76
-134 0 -38 497 -1465 523 -1502 22 -31 88 -65 127 -66 18 0 1945 661 1968 675
2 2 -333 969 -589 1701 -3 8 -355 -110 -963 -322z m931 -6 c24 -67 42 -122 40
-123 -6 -6 -529 -185 -537 -185 -6 0 -10 6 -10 14 0 8 -5 27 -11 43 -6 15 -10
29 -10 30 0 2 -13 39 -29 83 -22 59 -26 82 -17 85 130 49 523 182 527 179 2
-3 23 -59 47 -126z m-776 -377 c128 -45 208 -103 286 -206 91 -119 134 -245
134 -390 -1 -405 -369 -703 -766 -620 -259 54 -461 275 -494 542 -33 268 106
527 346 644 158 77 330 88 494 30z"/>
<path d="M14910 18781 c-87 -28 -140 -59 -200 -120 -104 -103 -154 -255 -131
-394 6 -38 15 -75 19 -81 3 -6 7 -17 8 -24 5 -31 73 -128 119 -169 238 -216
604 -138 739 158 94 204 8 469 -188 584 -106 62 -256 81 -366 46z m265 -189
c61 -33 89 -62 121 -128 72 -146 13 -319 -132 -390 -69 -34 -170 -35 -245 -2
-64 27 -132 102 -155 170 -20 61 -15 167 10 216 28 55 88 114 141 139 43 21
61 24 135 20 63 -2 95 -9 125 -25z"/>
<path d="M21915 19197 c-803 -216 -1482 -404 -1509 -417 -147 -73 -252 -267
-231 -425 6 -45 1253 -4714 1261 -4724 4 -4 362 90 954 250 118 32 780 209
1470 394 690 185 1256 338 1258 340 2 2 -278 1055 -623 2342 -412 1537 -636
2359 -655 2399 -38 78 -119 155 -207 197 -59 27 -80 32 -163 34 l-95 3 -1460
-393z m-573 -2972 c5 -16 47 -174 94 -350 47 -176 89 -329 91 -340 3 -11 77
-288 165 -615 206 -770 199 -743 191 -750 -12 -11 -223 -64 -229 -58 -2 3 -29
97 -60 209 -30 112 -83 312 -119 444 -85 314 -228 851 -265 990 -17 61 -50
184 -74 275 -24 91 -43 167 -41 169 9 8 202 60 220 58 12 -1 22 -13 27 -32z"/>
<path d="M26705 19306 c-34 -8 -92 -24 -130 -36 -114 -37 -305 -39 -525 -7
-251 37 -295 40 -401 28 -136 -17 -201 -36 -314 -91 -154 -76 -207 -124 -493
-454 -120 -137 -193 -197 -332 -270 -61 -33 -122 -72 -136 -88 -45 -54 -28
-108 68 -213 270 -298 564 -866 789 -1523 34 -101 72 -198 83 -215 26 -39 104
-93 154 -107 87 -24 113 -17 821 204 727 227 739 232 792 311 31 47 423 1220
445 1333 37 193 4 408 -103 662 -89 212 -221 374 -358 441 -65 32 -76 34 -185
36 -69 2 -139 -3 -175 -11z m267 -338 c48 -14 150 -111 205 -195 48 -71 97
-193 112 -277 16 -86 14 -242 -4 -311 -32 -125 -99 -221 -184 -265 -47 -24
-82 -25 -120 -6 -34 18 -104 93 -127 137 -9 19 -21 37 -26 40 -5 3 -9 8 -8 10
1 2 -4 20 -12 39 -9 19 -27 62 -41 95 -14 34 -58 162 -97 285 -81 254 -86 300
-38 362 67 88 209 123 340 86z m-777 -242 c29 -19 29 -20 180 -506 69 -223
137 -439 150 -480 118 -359 235 -757 230 -781 -14 -64 -98 -86 -139 -38 -23
27 -30 47 -186 549 -55 179 -112 359 -125 400 -14 41 -47 149 -75 240 -28 91
-62 199 -75 240 -93 291 -99 322 -68 364 21 27 75 33 108 12z"/>
<path d="M18530 18221 c-437 -143 -1449 -471 -2249 -730 -1023 -331 -1463
-478 -1486 -495 -46 -35 -75 -100 -75 -167 0 -44 79 -298 424 -1362 391 -1209
426 -1311 457 -1344 47 -48 99 -73 156 -73 35 0 280 75 931 286 486 157 888
282 892 278 9 -10 113 -335 108 -339 -2 -1 -178 -59 -391 -128 -213 -69 -397
-133 -408 -142 -26 -25 -24 -42 24 -180 36 -104 46 -121 69 -129 22 -8 234 58
1285 398 692 224 1266 415 1276 423 9 9 17 26 17 38 0 32 -78 258 -92 267 -7
4 -24 8 -37 8 -18 0 -706 -216 -787 -247 -8 -3 -32 57 -67 169 -31 95 -54 174
-52 176 2 2 404 133 893 292 527 170 902 297 919 310 42 31 74 91 80 153 5 48
-27 150 -417 1357 -241 745 -432 1321 -446 1342 -38 60 -95 92 -168 95 -56 2
-126 -19 -856 -256z m773 -153 c21 -10 47 -33 57 -51 11 -18 50 -124 86 -237
37 -113 131 -405 211 -650 79 -245 166 -512 192 -595 27 -82 83 -258 126 -390
83 -260 86 -283 44 -352 -38 -62 -30 -58 -589 -238 -113 -36 -212 -68 -220
-72 -8 -3 -20 -7 -26 -8 -6 -2 -132 -42 -280 -91 -148 -48 -274 -88 -280 -90
-5 -1 -80 -25 -165 -52 -187 -62 -1881 -610 -2247 -728 -144 -46 -270 -84
-280 -84 -43 0 -100 25 -133 59 -33 32 -44 60 -99 231 -35 107 -65 200 -69
205 -3 6 -6 15 -7 20 -2 14 -37 121 -164 515 -60 184 -163 504 -230 710 -66
206 -124 382 -128 390 -18 33 -14 113 8 159 28 60 60 79 210 129 178 58 768
249 1225 397 215 69 397 128 405 132 8 3 20 7 27 9 12 2 418 133 758 244 529
172 1415 457 1440 463 31 7 86 -4 128 -25z"/>
<path d="M34653 18218 c-31 -15 -40 -51 -54 -214 l-12 -142 -57 -5 c-66 -6
-123 -32 -167 -79 -58 -61 -626 -910 -640 -957 -27 -92 -6 -185 60 -254 47
-50 1159 -806 1234 -839 90 -40 222 -11 290 64 35 38 614 898 629 934 17 40
18 139 3 183 -6 18 -9 34 -7 36 3 4 148 -92 164 -107 1 -2 -4 -190 -12 -418
-14 -399 -14 -416 4 -439 37 -50 117 -48 144 3 13 24 45 888 34 930 -5 19 -41
49 -141 116 -74 50 -135 95 -135 100 0 6 15 31 33 57 75 107 78 103 -231 311
-141 96 -333 225 -427 289 -541 367 -657 443 -673 442 -9 0 -27 -5 -39 -11z
m622 -547 c270 -182 510 -345 535 -362 25 -17 53 -36 63 -43 17 -11 15 -18
-38 -94 -31 -45 -58 -82 -61 -82 -3 0 -239 159 -526 353 l-520 352 7 90 c9
122 13 137 34 126 9 -5 237 -158 506 -340z"/>
<path d="M38468 17526 c-61 -22 -95 -49 -174 -137 -107 -118 -112 -142 -52
-206 l31 -32 -39 -45 c-208 -240 -372 -415 -390 -415 -11 -1 -121 20 -245 45
-249 50 -295 52 -378 9 -50 -25 -100 -75 -126 -125 -25 -49 -66 -266 -55 -294
11 -29 47 -56 75 -56 35 0 46 -14 39 -48 -5 -24 -12 -32 -28 -32 -11 0 -133
23 -271 50 -137 28 -261 50 -275 50 -37 0 -88 -35 -105 -72 -20 -43 -317
-1540 -317 -1596 0 -47 19 -83 56 -107 20 -13 2665 -545 2711 -545 29 0 83 31
100 57 10 14 64 262 131 601 64 317 116 578 117 579 1 1 35 -5 75 -14 40 -8
79 -12 86 -10 18 7 47 154 32 166 -6 5 -44 14 -83 21 -44 8 -73 18 -73 26 0 6
9 56 20 109 25 122 25 162 0 203 -21 33 -71 62 -111 62 -11 0 -19 4 -17 9 5
15 261 301 269 301 3 0 12 -7 20 -16 22 -27 69 -46 99 -39 36 8 179 166 211
233 43 92 25 222 -44 304 -12 15 -251 232 -532 483 -428 382 -518 459 -563
475 -60 23 -140 25 -194 6z m135 -160 c27 -12 192 -153 425 -366 35 -32 184
-165 332 -296 147 -132 276 -253 286 -270 27 -48 15 -103 -36 -163 l-43 -51
-37 30 c-36 29 -71 37 -103 24 -12 -4 -179 -186 -242 -261 -5 -7 -49 -54 -96
-105 l-87 -93 -137 27 c-76 15 -140 30 -143 32 -2 3 -1 21 2 40 l7 35 48 -6
c57 -6 88 7 102 45 24 61 51 228 46 278 -10 93 -70 180 -156 223 -35 18 -369
91 -648 141 -40 7 -73 16 -73 19 0 3 93 109 206 236 114 126 210 240 215 252
11 29 -1 61 -35 92 -14 14 -26 30 -26 37 0 17 86 97 113 106 34 10 45 9 80 -6z
m-633 -872 c322 -63 614 -121 650 -128 36 -7 75 -18 86 -24 49 -26 64 -86 47
-185 l-6 -39 -51 6 c-45 6 -55 4 -79 -17 -22 -19 -31 -39 -44 -110 -14 -72
-20 -87 -35 -87 -11 0 -200 36 -421 80 -221 43 -413 81 -427 84 -114 22 -374
77 -377 80 -2 2 4 44 13 94 17 85 17 92 0 117 -17 26 -40 39 -88 49 -16 4 -26
12 -23 19 2 6 7 29 10 50 11 80 56 127 120 127 22 0 304 -52 625 -116z m766
-1239 c109 -32 208 -129 232 -227 41 -165 -25 -323 -170 -403 -49 -28 -61 -30
-153 -30 -90 0 -106 3 -158 29 -108 53 -176 153 -185 275 -17 242 204 424 434
356z"/>
<path d="M38552 15099 c-104 -52 -137 -194 -65 -287 74 -98 202 -106 289 -18
157 156 -25 403 -224 305z"/>
<path d="M28651 16706 c-24 -25 -71 -60 -105 -78 -58 -31 -66 -33 -161 -32
-92 0 -112 4 -255 51 -305 101 -415 102 -719 7 -105 -33 -116 -35 -127 -19
-11 14 -18 15 -51 5 -37 -11 -42 -10 -68 14 -15 14 -42 28 -59 31 -23 5 -216
-52 -798 -234 -422 -132 -777 -245 -788 -251 -54 -29 -64 -88 -31 -196 26 -87
50 -120 99 -135 35 -10 87 5 812 231 829 259 823 257 836 326 5 28 12 34 50
44 38 11 43 15 38 35 -5 20 4 24 133 63 282 86 356 84 651 -12 244 -80 340
-84 469 -21 43 21 98 60 134 94 l62 59 -35 31 c-20 17 -37 31 -40 31 -2 0 -23
-20 -47 -44z"/>
<path d="M31589 16433 c-5 -13 -9 -28 -9 -34 0 -22 -210 -592 -223 -605 -2 -3
-44 15 -93 38 -83 40 -94 43 -174 43 -75 0 -93 -4 -154 -33 -133 -63 -262
-219 -390 -472 -150 -297 -158 -375 -59 -615 55 -133 77 -160 134 -160 33 0
46 6 65 28 33 39 30 72 -16 180 -48 112 -64 185 -56 245 3 25 38 110 76 190
144 299 279 451 401 452 21 0 68 -16 117 -40 l82 -39 -18 -48 c-399 -1064
-458 -1213 -472 -1207 -8 3 -22 8 -30 10 -10 3 -148 -170 -415 -517 -220 -287
-399 -524 -397 -528 4 -8 1343 -724 1346 -719 2 2 93 287 204 633 176 555 198
631 185 642 -14 11 67 128 582 850 329 461 624 871 657 911 l59 73 -43 50
c-87 104 -297 275 -463 379 -198 123 -506 246 -725 288 -169 33 -160 33 -171
5z m220 -280 c227 -122 285 -152 351 -187 157 -82 576 -309 584 -316 4 -5 -14
-39 -40 -76 -27 -37 -56 -78 -64 -90 -8 -13 -48 -68 -87 -123 -40 -55 -73
-105 -73 -110 0 -6 -4 -11 -8 -11 -5 0 -26 -26 -48 -57 -21 -32 -57 -83 -80
-113 -22 -30 -58 -80 -80 -111 -21 -31 -72 -102 -111 -157 -40 -55 -73 -106
-73 -111 0 -6 -4 -11 -8 -11 -5 0 -26 -26 -48 -57 -21 -32 -57 -83 -80 -113
-22 -30 -58 -80 -80 -111 -21 -31 -72 -102 -111 -157 -40 -55 -73 -106 -73
-111 0 -6 -4 -11 -9 -11 -4 0 -29 -31 -54 -68 -65 -96 -65 -97 -123 -69 -27
12 -56 27 -64 32 -13 9 -211 116 -345 186 -33 17 -79 42 -101 55 l-42 25 160
422 c88 232 161 427 162 432 4 16 17 49 25 65 4 8 92 241 197 517 104 277 191
503 193 503 2 0 60 -30 130 -67z m-799 -2365 c95 -28 182 -122 213 -229 17
-61 7 -172 -22 -231 -31 -65 -92 -125 -159 -156 -47 -22 -71 -27 -137 -27
-136 0 -238 63 -297 182 -59 121 -40 264 49 363 43 48 95 82 153 101 24 8 170
6 200 -3z"/>
<path d="M30814 13661 c-80 -36 -133 -135 -119 -219 22 -135 170 -218 290
-163 50 23 93 65 113 111 32 74 9 182 -50 237 -57 53 -159 68 -234 34z"/>
<path d="M28010 15990 c-553 -148 -1076 -287 -1162 -311 l-157 -42 40 -58 c21
-32 45 -56 52 -54 6 2 527 156 1157 341 630 185 1146 338 1148 339 10 10 -33
55 -52 54 -11 -1 -473 -122 -1026 -269z"/>
<path d="M28002 15752 c-617 -202 -1123 -371 -1123 -377 1 -5 319 -468 708
-1027 l708 -1017 21 22 c12 12 373 399 803 860 511 547 779 842 774 850 -34
56 -342 500 -517 747 -129 181 -224 306 -234 307 -9 0 -522 -164 -1140 -365z"/>
<path d="M32955 15031 c-47 -22 -63 -46 -71 -104 -13 -96 55 -292 130 -375
l36 -40 -130 -376 c-71 -207 -137 -391 -146 -409 -9 -17 -43 -58 -76 -90 -32
-32 -83 -95 -112 -140 l-54 -82 59 -28 c71 -34 127 -98 160 -184 31 -82 38
-257 14 -390 -52 -293 -233 -665 -465 -958 -35 -44 -109 -127 -166 -185 l-102
-105 -7 -142 c-13 -247 13 -424 78 -531 93 -155 276 -281 408 -282 68 0 103
23 120 80 23 78 -34 210 -139 322 l-63 67 62 102 c261 432 552 1267 646 1850
23 145 23 393 0 475 -9 34 -17 85 -17 114 0 28 38 221 85 430 47 208 85 381
85 383 0 3 26 13 57 23 73 23 189 101 244 162 76 87 96 151 64 212 -68 131
-551 270 -700 201z"/>
<path d="M29174 14091 c-428 -484 -779 -884 -779 -891 0 -12 127 -200 135
-199 4 0 1462 1830 1484 1863 8 12 -9 43 -54 99 -3 4 -357 -388 -786 -872z"/>
<path d="M29344 13833 l-731 -957 50 -73 c28 -40 54 -73 57 -73 9 1 1395 1973
1398 1990 1 8 -8 27 -20 42 l-23 27 -731 -956z"/>
<path d="M35109 14545 c-17 -47 -37 -85 -43 -85 -7 0 -99 34 -206 75 -106 41
-210 78 -230 81 -60 10 -140 -19 -198 -71 -47 -42 -55 -57 -116 -213 -161
-412 -239 -612 -266 -682 -15 -41 -35 -91 -43 -110 l-15 -35 81 -31 c76 -28
415 -160 617 -239 206 -81 1339 -523 1475 -575 83 -32 238 -93 345 -135 107
-42 281 -109 385 -150 105 -40 410 -159 679 -264 269 -105 490 -190 491 -188
2 2 17 40 236 602 149 383 151 391 146 452 -5 73 -38 136 -93 181 -22 18 -116
61 -235 108 -143 56 -199 82 -199 93 1 9 14 50 30 90 16 41 28 76 27 78 -4 3
-470 186 -787 308 -118 46 -238 92 -266 103 l-52 21 -32 -85 c-25 -63 -37 -84
-51 -84 -10 0 -114 38 -231 83 -117 46 -246 96 -286 112 -41 15 -76 33 -79 41
-4 10 25 96 55 166 2 4 -7 12 -20 17 -29 12 -140 56 -538 211 -173 67 -366
142 -427 166 -62 24 -115 44 -117 44 -2 0 -19 -38 -37 -85z m-323 -443 c44
-22 93 -73 121 -125 13 -23 18 -55 18 -117 0 -75 -3 -91 -27 -132 -55 -93
-150 -144 -256 -136 -78 6 -159 46 -195 97 -114 164 -50 372 133 432 44 15
161 4 206 -19z m1172 -458 c123 -61 180 -214 129 -346 -25 -65 -102 -133 -175
-154 -196 -57 -387 116 -343 312 31 135 128 213 267 214 56 0 81 -5 122 -26z
m638 -248 c100 -47 161 -155 151 -267 -21 -237 -313 -333 -472 -158 -93 103
-85 280 16 376 80 75 206 95 305 49z m634 -247 c183 -82 218 -326 65 -456 -55
-47 -128 -69 -202 -60 -72 9 -76 10 -129 48 -175 126 -137 403 65 475 56 20
149 17 201 -7z m654 -254 c164 -79 203 -306 75 -434 -111 -112 -287 -107 -395
11 -51 55 -69 104 -68 188 2 106 57 188 159 237 41 20 62 23 120 21 42 -2 86
-11 109 -23z"/>
<path d="M27165 14613 c-310 -40 -599 -186 -835 -423 -205 -205 -317 -414
-351 -654 -11 -81 -11 -89 7 -114 11 -15 111 -159 223 -319 l204 -293 51 -15
c28 -8 81 -18 118 -22 l67 -6 47 -68 c45 -66 47 -67 69 -53 22 14 25 12 72
-41 89 -99 153 -257 153 -375 0 -83 -24 -143 -86 -209 -62 -67 -134 -108 -308
-175 -246 -95 -307 -154 -266 -260 22 -58 138 -158 254 -219 l48 -26 34 22
c19 12 34 25 34 28 0 4 -41 31 -92 60 -50 30 -116 77 -145 105 -45 42 -54 56
-51 80 4 39 43 63 202 125 253 98 355 166 414 276 91 172 45 412 -119 619 -38
49 -46 63 -34 68 11 4 14 13 10 29 -6 22 -2 24 58 35 409 75 836 411 1001 786
l26 59 -42 62 c-24 34 -178 256 -343 493 l-300 432 -45 -2 c-25 0 -58 -3 -75
-5z m675 -868 c9 -11 11 -33 7 -73 -15 -144 -83 -270 -209 -388 -80 -75 -143
-106 -226 -112 -56 -4 -66 -2 -88 19 -17 16 -24 33 -24 61 0 47 20 68 111 118
77 43 205 167 283 275 84 116 115 137 146 100z"/>
<path d="M19820 14516 c0 -25 3 -46 8 -46 73 0 294 -25 319 -35 70 -29 56 -58
-110 -232 -103 -108 -128 -140 -142 -183 -32 -95 -14 -150 100 -308 62 -87 66
-95 51 -111 -18 -20 -21 -54 -6 -81 9 -16 5 -22 -20 -35 -36 -19 -50 -43 -50
-87 0 -23 52 -150 151 -369 83 -184 161 -357 174 -386 l23 -51 -96 -33 c-131
-45 -385 -172 -507 -254 -214 -143 -411 -327 -510 -477 -26 -40 -50 -75 -51
-76 -1 -2 -139 -41 -306 -86 l-304 -82 -70 33 c-119 55 -215 77 -339 78 -101
0 -114 -2 -155 -27 -125 -73 -130 -233 -20 -619 90 -315 164 -419 299 -419
123 0 324 143 439 312 37 54 8 43 357 136 l220 59 50 -37 c256 -193 747 -302
1175 -261 583 56 963 304 1061 691 30 118 23 332 -15 468 -94 337 -280 545
-556 621 -40 12 -77 24 -81 28 -3 5 -118 221 -255 481 -195 371 -255 477 -276
488 -33 17 -78 18 -114 2 -19 -9 -28 -10 -31 -2 -10 29 -33 47 -59 47 -31 0
-39 9 -131 145 -91 134 -81 183 66 337 114 119 162 190 168 248 10 108 -70
147 -343 163 l-114 7 0 -47z m1146 -2167 c36 -11 64 -24 62 -29 -2 -5 -48 -88
-103 -184 -91 -160 -125 -203 -125 -160 0 9 -22 99 -50 200 -27 101 -50 186
-50 188 0 9 67 14 133 9 38 -2 97 -13 133 -24z m-355 -51 c44 -166 90 -335 95
-350 3 -11 0 -18 -8 -17 -20 0 -351 194 -356 208 -10 29 202 199 250 201 4 0
12 -19 19 -42z m592 -94 c48 -52 117 -160 117 -184 0 -13 -43 -28 -200 -70
-110 -29 -203 -51 -205 -48 -3 3 16 43 43 89 174 298 161 280 183 269 11 -6
38 -31 62 -56z m-772 -244 c65 -38 119 -66 119 -62 0 4 4 2 8 -3 4 -6 27 -23
52 -39 25 -16 40 -31 33 -33 -6 -2 -99 -28 -207 -57 -157 -42 -196 -50 -201
-38 -17 44 1 208 30 278 18 43 9 46 166 -46z m927 -162 c-4 -101 -31 -218 -51
-218 -10 0 -129 62 -137 71 -3 3 -34 21 -69 40 -36 19 -70 39 -76 44 -6 6 -28
19 -48 30 -20 11 -37 22 -37 25 0 7 368 108 399 109 l23 1 -4 -102z m-678 -82
c0 -8 -193 -341 -206 -355 -10 -12 -22 -5 -71 42 -58 55 -133 167 -133 197 0
11 47 28 188 67 178 49 222 58 222 49z m396 -127 c96 -55 174 -107 174 -114 0
-23 -140 -143 -197 -170 -31 -14 -58 -23 -61 -21 -2 3 -20 63 -39 133 -57 216
-63 237 -69 255 -3 10 0 18 6 18 6 0 90 -45 186 -101z m-237 -138 c28 -107 49
-197 45 -200 -15 -15 -182 -4 -251 17 -40 13 -73 24 -73 27 0 6 191 338 203
353 5 7 13 9 17 5 4 -4 30 -95 59 -202z m-2514 66 c113 -39 163 -67 221 -120
77 -70 97 -113 92 -196 -6 -111 -75 -221 -206 -332 -106 -88 -172 -109 -213
-68 -21 21 -72 125 -85 174 -1 6 -18 68 -38 138 -69 248 -83 368 -50 416 16
23 21 23 113 18 65 -3 118 -13 166 -30z"/>
<path d="M25110 14395 c-55 -16 -91 -26 -2030 -545 -866 -232 -1578 -425
-1581 -428 -10 -10 593 -2248 619 -2304 74 -151 240 -247 410 -235 59 3 418
96 1517 391 812 218 1466 398 1499 414 153 70 263 264 241 427 -3 27 -141 553
-306 1167 -164 615 -299 1120 -299 1123 0 8 -20 5 -70 -10z m-2943 -1237 c0
-14 45 -187 93 -358 36 -127 230 -857 230 -863 0 -2 -12 -7 -27 -11 -16 -3
-68 -17 -118 -30 -49 -14 -91 -24 -92 -22 -2 2 -76 273 -164 602 -89 329 -163
606 -166 615 -4 12 19 22 109 46 132 36 135 37 135 21z"/>
<path d="M17607 13441 c-759 -118 -1161 -184 -1188 -196 -95 -43 -167 -154
-176 -269 -6 -76 129 -974 158 -1052 25 -67 83 -132 150 -169 50 -28 62 -30
152 -30 107 0 100 4 112 -72 9 -55 41 -103 87 -128 34 -18 42 -18 123 -7 48 7
90 10 93 7 3 -3 24 -126 47 -273 l41 -267 -34 -13 c-89 -31 -151 -120 -159
-226 -8 -91 61 -524 93 -593 44 -92 133 -153 224 -153 59 0 208 28 245 46 76
36 135 142 135 241 0 78 -70 506 -91 552 -43 99 -115 157 -208 168 -28 3 -51
8 -51 10 0 2 -18 120 -40 263 -22 143 -40 263 -40 269 0 5 39 14 86 21 70 10
92 18 119 41 43 38 59 96 47 171 -8 53 -7 57 12 62 12 2 350 55 751 116 568
87 741 117 781 134 97 44 169 148 180 261 7 79 -134 1001 -165 1069 -48 109
-158 187 -271 192 -46 2 -395 -48 -1213 -175z m1074 -63 c90 -30 139 -104 163
-243 21 -121 20 -219 -3 -270 -26 -59 -80 -101 -143 -114 -110 -22 -839 -131
-878 -131 -75 0 -153 58 -187 139 -21 49 -43 185 -44 263 -1 100 39 181 105
215 25 13 857 149 927 152 14 1 41 -4 60 -11z m-1231 -2558 c33 -36 31 -24 74
-306 48 -309 43 -323 -109 -347 -51 -8 -99 -11 -111 -6 -47 17 -75 81 -90 207
-3 20 -16 107 -29 193 -34 221 -23 254 91 275 116 21 142 18 174 -16z"/>
<path d="M33858 13157 c-37 -94 -164 -422 -283 -727 -247 -632 -356 -911 -478
-1225 -87 -226 -120 -310 -258 -664 -44 -112 -79 -205 -77 -206 2 -2 323 -128
713 -280 391 -152 789 -307 885 -345 96 -38 229 -89 295 -115 66 -26 188 -73
270 -105 83 -33 355 -139 605 -236 250 -97 547 -213 660 -257 534 -209 635
-246 641 -239 3 4 44 104 89 222 46 118 100 258 120 310 102 263 299 768 440
1130 153 391 272 697 427 1095 41 105 78 199 83 210 7 19 -16 29 -297 139
-170 66 -308 115 -312 110 -4 -5 -29 -65 -56 -134 -58 -151 -272 -702 -390
-1005 -13 -33 -85 -217 -160 -410 -75 -192 -159 -408 -187 -480 -44 -111 -58
-137 -99 -177 -77 -76 -144 -85 -269 -35 -36 14 -182 71 -325 127 -143 55
-316 123 -385 150 -186 73 -951 370 -1310 510 -360 140 -417 164 -444 188 -33
30 -56 93 -56 160 0 68 3 78 104 337 37 94 93 238 125 320 32 83 150 384 261
670 112 286 227 581 255 655 29 74 62 158 74 187 11 29 17 55 12 57 -11 7
-599 236 -605 236 -1 0 -31 -78 -68 -173z"/>
<path d="M32456 13250 c-131 -291 -290 -859 -371 -1320 -34 -195 -34 -192 23
-130 380 422 623 1007 548 1323 -22 94 -72 156 -144 176 -29 9 -31 8 -56 -49z"/>
<path d="M29812 13169 c-24 -45 -40 -85 -35 -89 17 -15 1420 -760 1431 -760 7
0 30 36 52 79 l40 80 -53 29 c-70 40 -1386 742 -1389 742 -2 0 -22 -37 -46
-81z"/>
<path d="M34711 12998 c-5 -13 -32 -81 -59 -151 -50 -127 -50 -128 -29 -138
54 -23 2461 -959 2462 -956 9 14 116 299 114 302 -4 4 -2470 965 -2476 965 -2
0 -7 -10 -12 -22z"/>
<path d="M28870 12490 c-461 -44 -882 -171 -1147 -347 -280 -185 -430 -407
-463 -682 -25 -203 27 -359 164 -489 183 -174 462 -271 865 -302 68 -5 131
-15 148 -23 64 -33 173 -176 266 -348 l47 -86 -20 -18 c-39 -35 -129 -160
-169 -235 -106 -197 -193 -493 -232 -785 l-11 -90 -75 -74 c-186 -183 -277
-401 -277 -666 0 -255 81 -456 255 -640 168 -177 377 -271 624 -282 142 -6
236 6 358 48 l88 30 396 -12 c431 -13 458 -11 563 40 213 102 342 443 310 818
-48 553 -352 1177 -784 1608 -269 268 -497 389 -724 384 l-84 -2 -39 73 c-113
208 -290 410 -410 468 -57 28 -79 32 -209 42 -321 24 -583 109 -704 227 -88
87 -114 165 -96 287 59 405 507 687 1260 793 181 25 700 25 890 0 574 -77
1024 -254 1284 -506 166 -161 242 -312 266 -526 5 -49 178 -823 384 -1720 205
-896 372 -1631 371 -1633 -2 -2 -142 -10 -313 -17 -170 -8 -323 -19 -338 -25
-62 -24 -113 -100 -114 -169 0 -73 58 -150 130 -171 17 -5 303 4 712 21 630
28 686 32 725 50 133 64 130 255 -4 320 -41 20 -48 20 -289 9 -135 -6 -247
-10 -249 -8 -10 11 -765 3351 -774 3428 -38 306 -222 576 -536 786 -200 133
-458 243 -750 319 -303 79 -519 106 -900 110 -165 2 -343 -1 -395 -5z m224
-3370 c218 -56 404 -204 506 -405 68 -133 85 -210 85 -375 -1 -102 -6 -151
-20 -200 -88 -302 -315 -515 -615 -576 -118 -24 -297 -15 -395 19 -206 71
-356 191 -454 361 -157 275 -143 598 38 864 180 266 533 395 855 312z"/>
<path d="M28750 8886 c-73 -21 -119 -43 -184 -90 -144 -103 -227 -263 -229
-440 -1 -161 47 -281 163 -397 179 -182 428 -220 653 -102 135 71 260 236 284
373 10 56 9 182 -1 235 -38 193 -205 369 -401 420 -71 18 -221 18 -285 1z"/>
<path d="M23995 10882 c-180 -95 -555 -387 -915 -711 -146 -131 -427 -410
-471 -467 -57 -74 -53 -93 27 -150 138 -98 251 -118 389 -68 39 14 78 26 89
27 13 1 128 -122 391 -418 l373 -420 -27 -28 c-14 -16 -38 -37 -52 -48 l-27
-19 -77 90 c-89 103 -126 123 -185 97 -38 -15 -221 -173 -246 -212 -21 -32
-20 -89 1 -122 29 -44 775 -882 795 -893 40 -21 97 -12 137 22 256 219 265
241 146 375 -32 36 -66 75 -76 88 l-17 23 270 238 c149 132 273 240 278 241 4
1 174 -187 377 -419 490 -555 515 -583 570 -604 56 -21 107 -15 180 20 57 28
157 110 590 481 915 785 1177 1102 1262 1532 25 132 23 401 -6 507 -33 124
-83 208 -186 311 -102 102 -197 163 -351 224 -210 84 -407 120 -706 128 -607
16 -1222 -138 -1900 -477 -270 -135 -491 -283 -621 -418 -75 -79 -97 -120 -97
-187 0 -84 20 -111 354 -489 l59 -67 -28 -29 c-16 -17 -32 -30 -35 -30 -8 0
-733 817 -738 831 -2 4 47 64 109 131 311 339 508 607 544 742 20 73 10 126
-31 176 -34 40 -62 38 -149 -8z m1904 -793 c92 -60 133 -179 99 -291 -15 -51
-82 -126 -133 -149 -57 -26 -156 -25 -212 2 -54 26 -116 96 -131 147 -38 127
16 252 133 309 42 20 61 23 121 20 59 -3 78 -9 123 -38z m986 -4 c66 -22 155
-77 205 -126 199 -199 200 -512 1 -710 -353 -350 -937 -38 -845 452 39 206
214 371 424 397 55 7 177 0 215 -13z m-1757 -156 c54 -27 91 -80 98 -145 13
-117 -90 -217 -209 -201 -117 16 -188 144 -142 254 21 50 42 72 90 94 53 25
109 24 163 -2z"/>
<path d="M26650 9911 c-132 -46 -219 -153 -228 -282 -10 -138 54 -251 175
-311 57 -28 78 -33 138 -33 70 0 165 26 165 46 0 5 6 9 14 9 21 0 95 86 119
138 32 71 30 180 -4 253 -55 117 -153 182 -279 186 -41 1 -86 -2 -100 -6z"/>
<path d="M20061 10545 c-1613 -108 -1993 -137 -2030 -151 -67 -25 -136 -99
-156 -169 -16 -54 -14 -98 64 -1278 59 -899 85 -1236 97 -1276 22 -75 91 -143
168 -167 l57 -18 2007 133 c1286 86 2023 138 2052 147 62 18 128 77 156 138
19 41 24 67 24 136 -1 47 -36 612 -79 1256 -73 1084 -80 1174 -100 1220 -41
91 -123 150 -223 158 -29 3 -946 -55 -2037 -129z m1829 -291 c45 -25 95 -100
98 -144 1 -19 29 -438 62 -930 48 -714 57 -903 49 -935 -15 -53 -82 -120 -134
-133 -22 -6 -256 -24 -520 -42 -264 -17 -507 -33 -540 -36 -107 -8 -1716 -114
-1740 -114 -25 0 -29 14 -39 160 -2 30 -5 60 -5 65 -1 6 -33 10 -77 10 l-75 0
-39 41 c-28 31 -40 53 -44 85 -4 24 -22 282 -41 572 l-35 529 19 44 c24 54 65
80 142 88 56 7 59 8 59 34 -1 15 -9 144 -19 287 -10 143 -18 261 -17 262 1 1
510 36 1132 77 621 42 1158 78 1194 81 36 2 146 10 245 16 99 6 181 12 182 13
10 8 116 -14 143 -30z m-3056 -306 c4 -62 10 -141 13 -175 l5 -61 -44 -6 c-56
-7 -661 -46 -714 -46 l-41 0 -10 168 c-7 98 -7 169 -2 173 5 3 96 11 202 18
322 20 541 36 573 40 7 0 14 -39 18 -111z m-277 -778 c114 -56 177 -161 178
-295 0 -102 -31 -171 -110 -244 -67 -60 -131 -84 -227 -83 -128 1 -235 71
-291 190 -52 112 -36 249 40 343 45 54 118 106 171 119 67 17 169 4 239 -30z
m274 -1083 c45 -34 50 -92 13 -136 -21 -26 -33 -31 -69 -31 -36 0 -48 5 -69
31 -55 65 -16 148 69 148 22 0 47 -5 56 -12z m-266 -13 c35 -16 45 -37 45 -94
0 -28 -6 -39 -33 -57 -57 -39 -114 -28 -143 28 -19 38 -11 79 23 113 30 30 61
33 108 10z m-253 -25 c26 -14 49 -71 42 -106 -14 -67 -115 -92 -160 -40 -70
82 23 197 118 146z"/>
<path d="M19051 9511 c-12 -8 -2 -227 34 -711 7 -90 24 -346 30 -460 3 -52 8
-114 11 -137 l5 -43 62 6 c71 7 100 22 128 67 19 29 20 43 14 162 -3 72 -8
155 -10 185 -3 30 -16 229 -30 441 -27 413 -33 446 -87 483 -24 17 -133 22
-157 7z"/>
<path d="M18323 9039 c-114 -56 -134 -213 -38 -297 93 -82 232 -56 285 52 25
53 25 102 1 158 -22 51 -42 70 -95 92 -52 22 -103 20 -153 -5z"/>
<path d="M32681 10137 c-26 -66 -261 -669 -299 -767 -55 -140 -59 -198 -19
-276 52 -103 54 -104 922 -439 66 -26 210 -82 320 -125 110 -43 243 -95 295
-115 52 -20 147 -57 210 -82 63 -25 347 -135 630 -245 556 -217 1071 -418
1215 -474 215 -85 256 -89 353 -33 67 38 94 76 142 195 126 319 310 797 308
799 -2 1 -122 49 -268 105 -146 56 -472 183 -725 282 -253 99 -487 190 -520
203 -33 12 -152 59 -265 103 -113 44 -248 97 -300 117 -52 20 -147 57 -210 82
-110 43 -861 335 -1400 545 -140 55 -283 110 -318 124 l-63 23 -8 -22z m1225
-603 c120 -47 224 -87 229 -88 10 -3 22 -8 98 -39 20 -9 37 -13 37 -10 0 3 6
1 13 -5 6 -5 71 -33 142 -60 72 -28 204 -79 295 -115 91 -35 336 -131 545
-212 209 -81 384 -151 389 -156 11 -9 -72 -229 -86 -229 -10 0 -168 61 -1203
465 -418 163 -763 299 -766 303 -5 6 78 232 85 232 1 0 101 -39 222 -86z"/>
<path d="M19530 5024 c-566 -72 -1063 -316 -1466 -718 -480 -481 -734 -1097
-734 -1781 0 -662 241 -1267 692 -1740 381 -399 856 -650 1412 -746 173 -30
530 -37 716 -15 578 71 1091 323 1496 738 366 374 590 815 686 1345 20 114 23
159 23 418 0 259 -3 304 -23 418 -75 418 -231 777 -481 1112 -96 128 -347 379
-473 473 -380 284 -800 451 -1260 501 -131 15 -459 12 -588 -5z m527 -1369
c237 -45 463 -169 628 -347 385 -416 416 -1025 76 -1478 -22 -30 -42 -57 -43
-60 -2 -3 -38 -38 -81 -78 -246 -230 -577 -345 -897 -312 -96 9 -237 39 -285
60 -127 56 -169 78 -240 124 -214 143 -378 355 -460 595 -76 226 -77 505 -1
728 144 424 519 728 961 781 96 12 239 6 342 -13z"/>
<path d="M32690 5029 c-1157 -132 -2073 -1038 -2215 -2189 -20 -162 -20 -468
0 -630 138 -1116 996 -2000 2115 -2177 91 -14 172 -18 390 -18 303 1 414 13
647 75 774 206 1410 776 1697 1523 223 578 223 1245 1 1822 -128 332 -310 611
-570 870 -409 409 -900 648 -1478 720 -132 16 -459 18 -587 4z m492 -1373
c174 -33 339 -106 480 -211 119 -90 141 -112 223 -220 116 -154 197 -338 226
-515 17 -103 15 -287 -5 -391 -20 -109 -73 -265 -106 -319 -6 -8 -19 -31 -30
-51 -37 -69 -140 -197 -213 -264 -458 -425 -1152 -412 -1593 29 -337 337 -433
831 -246 1264 21 48 55 113 75 145 20 31 37 59 37 61 0 6 56 71 119 139 254
271 661 403 1033 333z"/>
</g>
</svg>
