<?xml version="1.0" standalone="no"?>
<!DOCTYPE svg PUBLIC "-//W3C//DTD SVG 20010904//EN"
 "http://www.w3.org/TR/2001/REC-SVG-20010904/DTD/svg10.dtd">
<svg version="1.0" xmlns="http://www.w3.org/2000/svg"
 width="550.000000pt" height="550.000000pt" viewBox="0 0 550.000000 550.000000"
 preserveAspectRatio="xMidYMid meet">

<g transform="translate(0.000000,550.000000) scale(0.100000,-0.100000)"
fill="#000000" stroke="none">
<path d="M2905 4603 c-27 -1 -192 -10 -365 -18 -376 -19 -555 -28 -1090 -55
-223 -12 -518 -27 -657 -34 -139 -6 -255 -14 -258 -17 -3 -3 -8 -152 -10 -330
-9 -568 -26 -2651 -22 -2655 4 -4 172 -44 742 -174 99 -23 277 -64 395 -91
118 -27 263 -61 322 -75 101 -24 108 -25 132 -9 14 10 26 21 26 26 0 5 7 9 15
9 8 0 14 4 12 9 -1 5 33 45 76 89 55 57 83 79 95 76 14 -5 14 -4 3 4 -11 8 10
35 107 133 l121 122 73 -6 c56 -4 65 -4 38 4 -19 5 -50 10 -67 10 -18 1 -33 5
-33 10 0 12 1 12 104 -8 91 -17 95 -31 11 -32 -27 -1 -35 -4 -26 -10 9 -6 0
-10 -28 -13 -22 -2 -41 0 -41 4 0 5 5 8 10 8 6 0 10 5 10 10 0 6 -9 10 -19 10
-28 0 -35 -30 -11 -52 11 -10 20 -14 20 -8 0 5 22 10 50 10 28 0 50 5 50 10 0
6 8 10 18 10 14 0 15 -2 2 -10 -8 -5 -10 -10 -5 -10 6 0 4 -4 -4 -9 -7 -5 -30
-7 -51 -4 -26 4 -39 1 -43 -9 -4 -12 5 -14 46 -11 28 1 55 -1 61 -6 6 -5 31
-11 56 -14 25 -3 36 -3 25 0 -11 3 -29 12 -40 19 -18 13 -18 14 10 10 62 -8
125 -29 125 -41 0 -8 16 -23 36 -35 21 -14 33 -28 30 -36 -9 -23 5 -74 21 -74
10 0 13 10 10 38 -5 46 0 62 21 62 12 0 13 -3 4 -12 -14 -14 -16 -88 -2 -88 6
0 10 17 10 38 0 20 5 44 10 52 7 10 10 -54 8 -205 -1 -143 -5 -223 -12 -227
-21 -15 -27 -7 -21 24 7 32 6 32 -10 13 -9 -11 -13 -13 -9 -5 4 8 7 30 7 50
-1 19 1 26 4 15 14 -57 23 -30 23 70 0 59 -3 105 -7 101 -7 -6 -28 -103 -35
-153 -1 -7 -5 -13 -9 -13 -4 0 -10 24 -12 53 l-3 52 -2 -53 c-1 -29 -9 -64
-18 -77 -14 -22 -22 -24 -85 -23 -38 1 -64 5 -58 9 6 4 -22 12 -62 19 -102 17
-99 15 -99 55 0 19 -5 35 -11 35 -6 0 -8 7 -5 16 4 10 -1 25 -10 35 -9 10 -13
22 -10 28 4 5 1 13 -5 17 -8 5 -9 3 -4 -6 5 -8 4 -11 -3 -6 -5 3 -13 24 -17
46 -6 38 -9 40 -42 40 -29 0 -33 3 -28 19 4 14 -3 24 -25 38 -31 19 -31 19
-10 38 18 16 20 16 20 2 0 -12 9 -17 29 -17 16 0 32 -6 34 -12 4 -10 8 -10 15
1 12 17 42 7 42 -14 0 -16 12 -18 48 -9 24 7 30 24 9 24 -8 0 -14 6 -15 13 -7
59 -15 77 -36 77 -25 0 -50 15 -52 30 -1 5 -2 15 -3 21 0 5 -6 7 -13 3 -7 -5
-9 -2 -4 7 4 8 0 5 -8 -5 -9 -11 -16 -16 -16 -12 0 4 -7 0 -16 -8 -8 -9 -13
-19 -11 -23 3 -5 1 -17 -4 -28 -7 -19 -8 -19 -8 3 -1 31 -21 18 -21 -14 0 -20
-4 -24 -18 -20 -12 4 -31 -8 -61 -40 -23 -25 -40 -48 -37 -52 4 -3 12 3 20 13
9 13 15 15 20 6 4 -6 0 -14 -8 -17 -9 -3 -13 -11 -9 -17 3 -6 1 -7 -6 -3 -17
11 -80 -34 -73 -53 4 -10 1 -13 -11 -8 -8 3 -21 -1 -27 -9 -8 -9 -9 -14 -2
-14 6 0 13 6 15 13 3 6 6 8 6 2 0 -5 -3 -16 -8 -24 -8 -12 -12 -12 -25 -2 -13
11 -17 9 -27 -13 -7 -14 -17 -23 -22 -19 -6 4 -8 0 -4 -10 4 -11 -1 -20 -13
-27 -11 -6 -17 -17 -14 -24 4 -10 -3 -16 -23 -19 -28 -4 -28 -4 3 -6 18 0 45
-8 60 -16 16 -8 36 -15 45 -15 8 0 50 -9 94 -21 43 -11 84 -18 91 -15 7 3 16
1 19 -4 4 -6 18 -10 33 -9 l27 0 -24 10 c-13 5 -21 12 -18 16 8 8 67 -17 67
-28 0 -5 9 -9 19 -9 11 0 21 -4 23 -8 2 -5 18 -12 36 -15 21 -4 31 -3 27 3 -3
6 1 10 10 10 9 0 14 -4 10 -9 -6 -10 65 -34 73 -26 5 5 -9 11 -43 18 -11 3 12
4 50 4 58 -2 69 1 67 13 -2 8 0 12 4 8 4 -4 12 -4 18 1 6 6 26 6 46 1 19 -4
27 -8 18 -9 -10 -1 -18 -6 -18 -13 0 -6 3 -8 7 -5 7 8 33 -11 33 -24 0 -5 -9
-9 -20 -9 -11 0 -20 -5 -20 -11 0 -8 17 -10 50 -7 28 3 50 1 50 -3 0 -5 8 -9
18 -10 14 0 14 -2 -3 -9 l-20 -9 20 0 c11 -1 31 -4 45 -6 22 -5 22 -4 5 4 -19
9 -18 10 5 10 l25 1 -2 267 c-2 148 -3 271 -3 276 0 10 -23 4 -33 -8 -5 -5 -5
0 -2 13 5 18 2 22 -17 23 -14 1 -6 6 22 13 l45 13 -42 7 c-24 4 -43 11 -43 16
0 4 15 5 33 1 17 -4 38 -6 45 -4 9 4 12 318 12 1529 l0 1524 -57 -2 c-32 -1
-80 -3 -108 -5z m-1805 -373 c0 -44 -3 -80 -6 -80 -4 0 -13 8 -21 18 -13 16
-14 16 -29 -5 -40 -57 -97 -3 -58 55 l19 27 3 -27 c3 -22 9 -28 28 -28 21 0
24 5 24 35 0 31 -3 35 -26 35 -24 0 -53 23 -54 43 0 4 27 7 60 7 l60 0 0 -80z
m-400 -7 c13 -44 17 -70 11 -76 -7 -7 -13 -5 -17 6 -8 22 -43 22 -60 0 -24
-34 -26 -4 -5 66 28 91 44 92 71 4z m72 40 l16 -27 13 27 c23 51 39 33 39 -43
0 -56 -3 -70 -15 -70 -11 0 -15 11 -15 37 0 33 -1 35 -14 18 -13 -18 -13 -18
-24 1 -10 16 -11 14 -12 -18 0 -27 -4 -38 -15 -38 -12 0 -15 14 -15 70 0 77
13 90 42 43z m172 11 c20 -20 20 -73 0 -102 -11 -15 -25 -22 -50 -22 l-34 0 0
70 0 70 34 0 c19 0 42 -7 50 -16z m806 -704 c42 -6 95 -20 120 -33 65 -34 162
-110 195 -153 36 -47 100 -168 119 -225 48 -145 61 -342 30 -464 -8 -33 -18
-73 -22 -90 -7 -26 -12 -30 -40 -29 -18 1 -30 -1 -28 -4 7 -7 -25 -31 -42 -32
-7 0 -21 7 -30 16 -14 15 -17 15 -27 0 -14 -18 -30 -22 -19 -4 4 6 11 28 14
47 4 20 11 43 14 53 6 14 -2 17 -61 23 -124 11 -113 -1 -113 131 l0 115 33 -5
c17 -3 60 -8 94 -11 l63 -6 -7 33 c-8 42 -17 48 -74 48 -26 0 -61 3 -78 6 -27
6 -31 11 -31 39 0 17 2 34 4 36 3 2 37 2 76 -1 40 -3 74 -2 77 3 9 15 -79 178
-101 187 -12 5 -48 29 -81 54 -33 25 -70 46 -82 46 -13 0 -23 6 -23 14 0 28
-131 29 -155 1 -5 -6 -30 -20 -55 -31 -25 -10 -54 -27 -64 -36 -22 -20 -36
-23 -36 -8 0 6 5 10 10 10 6 0 10 13 10 29 0 16 6 36 13 43 17 16 16 70 0 76
-19 6 -15 32 5 33 14 0 14 2 -3 8 -19 8 -19 8 5 16 24 8 24 8 5 16 -11 4 -14
8 -7 8 7 1 31 10 55 20 71 33 114 37 237 21z m-105 -210 c-3 -5 -16 -10 -28
-9 -21 0 -21 1 -2 9 28 12 37 12 30 0z m35 0 c0 -5 -2 -10 -4 -10 -3 0 -8 5
-11 10 -3 6 -1 10 4 10 6 0 11 -4 11 -10z m-643 -236 c58 -7 73 -31 73 -115 0
-59 -3 -70 -24 -86 l-24 -19 28 -66 c16 -37 27 -68 24 -70 -2 -3 -17 -3 -33 0
-26 4 -32 12 -56 78 l-27 74 -44 0 -44 0 0 -65 0 -65 -30 0 -30 0 0 106 0 105
105 -7 105 -7 0 31 c0 30 -1 30 -62 36 -35 3 -81 7 -103 9 -33 2 -41 6 -43 25
-8 55 6 58 185 36z m189 -17 c1 -1 17 -32 36 -70 l34 -68 38 66 c35 60 41 65
72 65 19 0 34 -3 34 -7 0 -3 -27 -52 -60 -109 -58 -99 -60 -105 -60 -174 0
-62 -2 -71 -16 -66 -9 3 -20 6 -25 6 -5 0 -9 30 -9 66 0 61 -5 76 -55 175 -30
60 -55 114 -55 120 0 8 11 9 32 5 17 -3 32 -7 34 -9z m537 -33 c12 -4 17 -16
17 -42 0 -33 -11 -48 -95 -137 l-95 -100 95 -9 95 -8 0 -39 c0 -46 7 -45 -175
-26 l-110 12 -3 33 c-3 30 7 44 92 136 l96 103 -47 7 c-25 3 -65 6 -89 6 -46
0 -52 7 -46 52 l5 30 121 -7 c66 -4 129 -9 139 -11z m550 -42 c9 -4 58 -68
107 -142 l89 -134 3 129 3 130 33 3 32 3 0 -203 0 -204 -34 4 c-32 4 -41 14
-126 143 -87 134 -103 154 -99 127 1 -7 1 -66 0 -131 l-1 -118 -27 3 -28 3 -3
198 c-2 183 -1 197 15 196 10 0 26 -4 36 -7z m-133 -482 c0 -5 -4 -10 -10 -10
-5 0 -10 5 -10 10 0 6 5 10 10 10 6 0 10 -4 10 -10z m-30 -10 c0 -5 -2 -10 -4
-10 -3 0 -8 5 -11 10 -3 6 -1 10 4 10 6 0 11 -4 11 -10z m724 -958 c6 -3 29
-8 50 -9 59 -5 57 -13 -2 -13 -29 0 -52 4 -52 8 0 10 -13 12 -84 13 -33 1 -44
4 -35 11 14 9 104 2 123 -10z m126 -48 c0 -2 -9 -4 -21 -4 -11 0 -18 4 -14 10
5 8 35 3 35 -6z m-72 -52 c2 -7 -2 -10 -12 -6 -9 3 -16 11 -16 16 0 13 23 5
28 -10z m-313 -42 c3 -5 1 -10 -4 -10 -6 0 -11 5 -11 10 0 6 2 10 4 10 3 0 8
-4 11 -10z m-211 -45 c3 -8 1 -15 -4 -15 -6 0 -10 7 -10 15 0 8 2 15 4 15 2 0
6 -7 10 -15z m0 -56 c-3 -5 -10 -7 -15 -3 -5 3 -7 10 -3 15 3 5 10 7 15 3 5
-3 7 -10 3 -15z m-186 -172 c2 -12 -3 -17 -17 -17 -12 0 -21 6 -21 13 0 31 32
34 38 4z m52 -53 c25 -15 25 -15 -10 -8 -40 7 -65 24 -34 24 10 -1 30 -7 44
-16z m126 -31 c-7 -7 -76 8 -76 17 0 4 18 3 40 -2 23 -6 39 -13 36 -15z m308
-14 c19 -1 18 -2 -4 -9 -15 -5 -18 -8 -8 -9 9 -1 24 -4 33 -7 10 -4 15 -2 13
6 -4 19 19 23 26 5 3 -9 2 -13 -3 -10 -5 3 -12 1 -16 -5 -8 -13 -56 -2 -71 16
-6 8 -13 11 -16 8 -7 -6 -58 17 -58 27 0 5 19 2 41 -6 23 -8 51 -15 63 -16z
m-74 -26 c3 -3 -8 -3 -25 1 -55 12 -85 25 -85 37 0 8 99 -26 110 -38z m320 12
c-19 -23 -50 -38 -50 -25 0 5 7 10 15 10 8 0 20 9 27 20 7 10 14 17 17 15 2
-3 -2 -12 -9 -20z m20 -16 c-7 -11 -14 -18 -17 -15 -3 3 0 12 7 21 18 21 23
19 10 -6z m-193 -15 c-3 -3 -12 -4 -19 -1 -8 3 -5 6 6 6 11 1 17 -2 13 -5z
m273 -34 c0 -5 -5 -10 -11 -10 -5 0 -7 5 -4 10 3 6 8 10 11 10 2 0 4 -4 4 -10z"/>
<path d="M657 4220 c-3 -12 0 -20 8 -20 8 0 11 8 8 20 -3 11 -7 20 -8 20 -1 0
-5 -9 -8 -20z"/>
<path d="M890 4220 c0 -34 3 -41 18 -38 12 2 17 13 17 38 0 25 -5 36 -17 38
-15 3 -18 -4 -18 -38z"/>
<path d="M1920 2795 c0 -30 3 -35 24 -35 13 0 44 -3 70 -6 l46 -7 0 35 c0 34
-1 35 -46 42 -89 12 -94 10 -94 -29z"/>
<path d="M2083 2653 c9 -2 25 -2 35 0 9 3 1 5 -18 5 -19 0 -27 -2 -17 -5z"/>
<path d="M2045 2589 c-12 -18 3 -22 20 -5 14 14 14 16 1 16 -8 0 -18 -5 -21
-11z"/>
<path d="M2078 2573 c7 -3 16 -2 19 1 4 3 -2 6 -13 5 -11 0 -14 -3 -6 -6z"/>
<path d="M3088 3623 c-2 -544 -2 -1379 0 -1857 2 -820 3 -868 20 -863 9 3 168
53 352 112 184 59 376 119 425 135 50 15 248 78 440 140 193 62 382 122 420
134 39 12 112 35 162 51 l93 30 0 1411 -1 1411 -77 12 c-42 7 -135 21 -206 32
-71 11 -141 19 -155 18 -14 -1 -33 1 -41 4 -8 3 -67 13 -130 21 -63 9 -212 31
-330 50 -213 34 -951 146 -963 146 -4 0 -8 -444 -9 -987z m1518 696 c19 -22
19 -22 -3 -10 -13 6 -23 16 -23 21 0 15 5 12 26 -11z m34 -39 c0 -5 -2 -10 -4
-10 -3 0 -8 5 -11 10 -3 6 -1 10 4 10 6 0 11 -4 11 -10z m52 -57 c26 -31 31
-43 14 -37 -9 3 -16 13 -16 21 0 9 -6 13 -13 10 -8 -3 -14 1 -14 9 0 19 11 18
29 -3z m18 -64 c0 -6 -4 -7 -10 -4 -5 3 -10 11 -10 16 0 6 5 7 10 4 6 -3 10
-11 10 -16z m35 -9 c3 -5 1 -10 -4 -10 -6 0 -11 5 -11 10 0 6 2 10 4 10 3 0 8
-4 11 -10z m21 -66 c-9 -9 -20 -13 -24 -9 -4 4 -1 10 6 12 6 3 12 12 12 21 0
12 3 13 11 5 9 -9 7 -16 -5 -29z m28 -20 c3 -8 2 -12 -4 -9 -6 3 -10 10 -10
16 0 14 7 11 14 -7z m-37 -36 c-3 -7 -5 -2 -5 12 0 14 2 19 5 13 2 -7 2 -19 0
-25z m-539 -33 c-3 -3 -9 2 -12 12 -6 14 -5 15 5 6 7 -7 10 -15 7 -18z m612
13 c0 -7 6 -25 14 -39 7 -14 16 -38 20 -52 6 -26 5 -27 -14 -15 -11 7 -20 16
-20 21 0 4 5 5 10 2 13 -8 13 5 -2 38 -7 15 -20 27 -28 28 -10 0 -11 2 -2 6 6
2 10 9 6 14 -3 5 0 9 5 9 6 0 11 -6 11 -12z m-507 -15 c-7 -2 -19 -2 -25 0 -7
3 -2 5 12 5 14 0 19 -2 13 -5z m122 -43 c3 -5 1 -10 -4 -10 -6 0 -11 5 -11 10
0 6 2 10 4 10 3 0 8 -4 11 -10z m85 -108 c0 -1 -9 2 -20 8 -11 6 -20 15 -20
20 0 6 9 2 20 -7 11 -10 20 -19 20 -21z m359 11 c10 -19 9 -22 -4 -17 -8 4
-15 15 -15 27 0 23 2 22 19 -10z m-301 -36 c6 3 12 0 12 -7 0 -6 -5 -8 -11 -4
-8 4 -9 -1 -5 -17 7 -22 6 -23 -5 -4 -6 11 -19 29 -28 40 -15 19 -15 19 4 4
11 -9 26 -14 33 -12z m42 -36 c0 -6 -4 -13 -10 -16 -5 -3 -10 1 -10 9 0 9 5
16 10 16 6 0 10 -4 10 -9z m20 -36 c0 -8 -2 -15 -4 -15 -2 0 -6 7 -10 15 -3 8
-1 15 4 15 6 0 10 -7 10 -15z m277 -27 c-3 -8 -6 -5 -6 6 -1 11 2 17 5 13 3
-3 4 -12 1 -19z m-249 -17 c3 -8 -1 -12 -9 -9 -7 2 -15 10 -17 17 -3 8 1 12 9
9 7 -2 15 -10 17 -17z m272 -32 c0 -3 -6 -6 -14 -6 -8 0 -11 8 -8 20 4 14 7
16 13 5 5 -7 9 -16 9 -19z m-273 -21 c-3 -8 -6 -5 -6 6 -1 11 2 17 5 13 3 -3
4 -12 1 -19z m53 18 c0 -3 -4 -8 -10 -11 -5 -3 -10 -1 -10 4 0 6 5 11 10 11 6
0 10 -2 10 -4z m-30 -62 c0 -8 -4 -12 -10 -9 -5 3 -10 13 -10 21 0 8 5 12 10
9 6 -3 10 -13 10 -21z m27 -16 c-3 -8 -6 -5 -6 6 -1 11 2 17 5 13 3 -3 4 -12
1 -19z m-7 -38 c0 -5 -2 -10 -4 -10 -3 0 -8 5 -11 10 -3 6 -1 10 4 10 6 0 11
-4 11 -10z m-284 -315 c11 -28 14 -109 14 -444 0 -362 -2 -414 -17 -445 -19
-41 3 -34 -281 -81 -158 -27 -217 -33 -232 -25 -38 20 -41 66 -38 522 4 531
-8 490 144 499 54 3 166 6 247 7 l148 2 15 -35z m361 -82 c-3 -10 -5 -4 -5 12
0 17 2 24 5 18 2 -7 2 -21 0 -30z m133 -1460 c0 -54 -3 -73 -10 -63 -5 8 -10
32 -10 54 0 33 -3 38 -19 33 -18 -4 -28 6 -31 31 -1 7 32 19 58 21 9 1 12 -21
12 -76z m-114 29 c37 -24 27 -115 -15 -137 -16 -8 -30 -12 -33 -10 -2 2 -3 34
-2 71 1 44 6 69 15 75 17 11 21 11 35 1z m-66 -88 c0 -47 -4 -73 -10 -69 -5 3
-10 21 -10 38 0 25 -3 28 -10 17 -9 -13 -11 -13 -20 0 -7 11 -10 4 -10 -27 0
-24 -4 -43 -10 -43 -13 0 -13 137 -1 145 5 3 12 -4 16 -15 9 -27 23 -25 31 5
12 49 24 24 24 -51z m127 34 c-1 -14 3 -22 11 -20 15 3 16 -13 2 -39 -17 -30
-40 -24 -40 12 0 28 15 69 25 69 3 0 4 -10 2 -22z m-233 -54 c9 -37 14 -69 10
-73 -4 -3 -9 0 -11 7 -8 20 -40 14 -46 -10 -4 -12 -9 -19 -13 -16 -6 7 13 134
23 151 11 19 22 2 37 -59z"/>
<path d="M4210 2850 c0 -5 5 -10 10 -10 6 0 10 5 10 10 0 6 -4 10 -10 10 -5 0
-10 -4 -10 -10z"/>
<path d="M4389 2822 c-1 -12 -2 -27 -3 -34 -1 -6 4 -13 9 -15 12 -4 14 52 3
63 -5 4 -9 -2 -9 -14z"/>
<path d="M4051 2818 c-1 -10 -5 -18 -11 -18 -5 0 -10 -5 -10 -12 0 -8 6 -7 16
4 9 9 14 22 11 30 -4 9 -6 7 -6 -4z"/>
<path d="M3943 2503 c-20 -4 -23 -11 -23 -53 l0 -49 32 10 c23 6 34 5 40 -4 4
-6 8 14 8 46 0 61 0 61 -57 50z"/>
<path d="M4789 1698 c0 -1 -2 -22 -4 -45 -2 -31 1 -43 11 -43 26 0 32 79 7 88
-7 2 -13 2 -14 0z"/>
<path d="M4610 1600 c0 -19 3 -21 12 -12 9 9 9 15 0 24 -9 9 -12 7 -12 -12z"/>
<path d="M3035 1510 c3 -5 10 -10 16 -10 5 0 9 5 9 10 0 6 -7 10 -16 10 -8 0
-12 -4 -9 -10z"/>
<path d="M2838 1488 c6 -6 18 -8 28 -6 14 3 12 5 -9 10 -19 3 -25 2 -19 -4z"/>
<path d="M2935 1420 c3 -5 8 -10 11 -10 2 0 4 5 4 10 0 6 -5 10 -11 10 -5 0
-7 -4 -4 -10z"/>
<path d="M2685 1410 c3 -5 15 -10 26 -10 11 0 18 -4 15 -8 -3 -5 9 -6 26 -4
20 3 29 1 24 -6 -3 -6 2 -13 11 -15 11 -3 6 -6 -12 -7 l-30 -2 30 -8 c27 -7
27 -8 6 -9 -37 -2 -92 21 -87 36 3 7 1 13 -4 13 -6 0 -10 -4 -10 -9 0 -5 -12
-12 -27 -14 l-28 -4 28 -2 c15 0 27 -5 27 -9 0 -5 6 -9 13 -9 11 0 52 -8 152
-27 l30 -6 -30 14 c-20 10 -24 15 -12 16 11 0 17 8 17 23 0 18 2 19 11 7 9
-12 10 -12 7 -1 -3 9 -34 21 -84 32 -94 21 -107 22 -99 9z m155 -46 c0 -8 -4
-12 -10 -9 -5 3 -10 10 -10 16 0 5 5 9 10 9 6 0 10 -7 10 -16z"/>
<path d="M2581 1328 c-5 -13 -5 -27 -1 -32 15 -15 40 3 40 29 0 32 -27 34 -39
3z"/>
<path d="M2639 1320 c-7 -64 -3 -110 8 -110 7 0 16 -6 20 -13 8 -13 120 -43
129 -34 3 2 -7 8 -22 11 -14 4 -24 9 -22 12 3 2 17 0 32 -6 31 -11 66 2 66 24
0 19 -22 26 -67 21 -32 -4 -34 -3 -13 4 25 9 25 9 -5 9 -56 -1 -83 17 -93 64
-7 31 -10 36 -12 18 l-2 -25 -8 25 -8 25 -3 -25z m55 -91 c-3 -6 0 -15 7 -20
7 -4 10 -11 6 -16 -9 -8 -27 15 -27 35 0 6 5 12 11 12 5 0 7 -5 3 -11z m51
-10 c4 -6 21 -10 39 -9 44 3 56 1 56 -8 0 -4 -21 -5 -46 -3 -29 2 -49 -1 -54
-9 -5 -9 -9 -9 -14 -1 -4 6 -2 11 3 11 6 0 11 4 11 10 0 5 -7 7 -15 4 -8 -4
-15 -1 -15 5 0 14 27 14 35 0z"/>
<path d="M2946 1275 c-4 -19 -3 -42 2 -50 5 -11 8 1 9 35 0 27 -1 50 -2 50 -2
0 -6 -16 -9 -35z"/>
<path d="M2987 1283 c-14 -49 -17 -93 -7 -93 5 0 10 20 10 44 0 26 5 46 12 48
9 3 9 6 1 11 -7 4 -14 0 -16 -10z"/>
<path d="M2862 1190 c0 -14 2 -19 5 -12 2 6 2 18 0 25 -3 6 -5 1 -5 -13z"/>
<path d="M2830 1160 c0 -5 5 -10 10 -10 6 0 10 5 10 10 0 6 -4 10 -10 10 -5 0
-10 -4 -10 -10z"/>
<path d="M2813 1028 c-4 -7 -8 -20 -8 -28 0 -10 -9 -14 -30 -13 -25 2 -27 1
-10 -6 32 -15 72 -13 72 4 0 12 -3 12 -16 2 -13 -10 -12 -7 2 15 9 15 17 30
17 33 0 10 -19 5 -27 -7z"/>
</g>
</svg>
